<?xml version="1.0" encoding="UTF-8"?>
<!DOCTYPE svg PUBLIC "-//W3C//DTD SVG 1.1//EN" "http://www.w3.org/Graphics/SVG/1.1/DTD/svg11.dtd">
<!-- Creator: CorelDRAW 2021 (64-Bit) -->
<svg xmlns="http://www.w3.org/2000/svg" xml:space="preserve" width="0.295425in" height="0.295429in" version="1.1" style="shape-rendering:geometricPrecision; text-rendering:geometricPrecision; image-rendering:optimizeQuality; fill-rule:evenodd; clip-rule:evenodd"
viewBox="0 0 33.22 33.22"
 xmlns:xlink="http://www.w3.org/1999/xlink"
 xmlns:xodm="http://www.corel.com/coreldraw/odm/2003">
 <defs>
  <style type="text/css">
   <![CDATA[
    .fil1 {fill:#2F3131;fill-rule:nonzero}
    .fil0 {fill:#DB353A;fill-rule:nonzero}
   ]]>
  </style>
 </defs>
 <g id="Layer_x0020_1">
  <metadata id="CorelCorpID_0Corel-Layer"/>
  <path class="fil0" d="M16.61 10.66c-0.28,0 -0.51,-0.23 -0.51,-0.51l0 -4.28c0,-0.28 0.23,-0.51 0.51,-0.51 0.28,0 0.51,0.23 0.51,0.51l0 4.28c0,0.28 -0.23,0.51 -0.51,0.51z"/>
  <path class="fil0" d="M16.61 27.85c-0.28,0 -0.51,-0.23 -0.51,-0.51l0 -4.28c0,-0.28 0.23,-0.51 0.51,-0.51 0.28,0 0.51,0.23 0.51,0.51l0 4.28c0,0.28 -0.23,0.51 -0.51,0.51z"/>
  <path class="fil1" d="M16.61 1.02c-1.09,0 -1.98,0.89 -1.98,1.98 0,1.09 0.89,1.98 1.98,1.98 1.09,0 1.98,-0.89 1.98,-1.98 0,-1.09 -0.89,-1.98 -1.98,-1.98zm0 4.97c-1.65,0 -3,-1.34 -3,-3 0,-1.65 1.34,-3 3,-3 1.65,0 3,1.34 3,3 0,1.65 -1.34,3 -3,3z"/>
  <path class="fil1" d="M16.61 28.25c-1.09,0 -1.98,0.89 -1.98,1.98 0,1.09 0.89,1.98 1.98,1.98 1.09,0 1.98,-0.89 1.98,-1.98 0,-1.09 -0.89,-1.98 -1.98,-1.98zm0 4.97c-1.65,0 -3,-1.34 -3,-3 0,-1.65 1.34,-3 3,-3 1.65,0 3,1.34 3,3 0,1.65 -1.34,3 -3,3z"/>
  <path class="fil0" d="M12.04 12.55c-0.13,0 -0.26,-0.05 -0.36,-0.15l-3.02 -3.02c-0.2,-0.2 -0.2,-0.52 0,-0.72 0.2,-0.2 0.52,-0.2 0.72,0l3.02 3.02c0.2,0.2 0.2,0.52 0,0.72 -0.1,0.1 -0.23,0.15 -0.36,0.15z"/>
  <path class="fil0" d="M24.2 24.71c-0.13,0 -0.26,-0.05 -0.36,-0.15l-3.02 -3.02c-0.2,-0.2 -0.2,-0.52 0,-0.72 0.2,-0.2 0.52,-0.2 0.72,0l3.02 3.02c0.2,0.2 0.2,0.52 0,0.72 -0.1,0.1 -0.23,0.15 -0.36,0.15z"/>
  <path class="fil1" d="M6.98 5.01c-0.53,0 -1.02,0.21 -1.4,0.58 -0.77,0.77 -0.77,2.03 0,2.8 0.75,0.75 2.05,0.75 2.8,0 0.77,-0.77 0.77,-2.03 0,-2.8 -0.37,-0.37 -0.87,-0.58 -1.4,-0.58zm0 4.97c-0.8,0 -1.55,-0.31 -2.12,-0.88 -1.17,-1.17 -1.17,-3.07 0,-4.24 1.13,-1.13 3.11,-1.13 4.24,0 1.17,1.17 1.17,3.07 0,4.24 -0.57,0.57 -1.32,0.88 -2.12,0.88z"/>
  <path class="fil1" d="M26.24 24.26c-0.53,0 -1.02,0.21 -1.4,0.58 -0.77,0.77 -0.77,2.03 0,2.8 0.75,0.75 2.05,0.75 2.8,0 0.77,-0.77 0.77,-2.03 0,-2.8l0 0c-0.37,-0.37 -0.87,-0.58 -1.4,-0.58zm0 4.97c-0.8,0 -1.55,-0.31 -2.12,-0.88 -1.17,-1.17 -1.17,-3.07 0,-4.24 1.13,-1.13 3.11,-1.13 4.24,0l0 0c1.17,1.17 1.17,3.07 0,4.24 -0.57,0.57 -1.32,0.88 -2.12,0.88z"/>
  <path class="fil0" d="M10.15 17.12l-4.28 0c-0.28,0 -0.51,-0.23 -0.51,-0.51 0,-0.28 0.23,-0.51 0.51,-0.51l4.28 0c0.28,0 0.51,0.23 0.51,0.51 0,0.28 -0.23,0.51 -0.51,0.51z"/>
  <path class="fil0" d="M27.34 17.12l-4.28 0c-0.28,0 -0.51,-0.23 -0.51,-0.51 0,-0.28 0.23,-0.51 0.51,-0.51l4.28 0c0.28,0 0.51,0.23 0.51,0.51 0,0.28 -0.23,0.51 -0.51,0.51z"/>
  <path class="fil1" d="M3 14.63c-1.09,0 -1.98,0.89 -1.98,1.98 0,1.09 0.89,1.98 1.98,1.98 1.09,0 1.98,-0.89 1.98,-1.98 0,-1.09 -0.89,-1.98 -1.98,-1.98zm0 4.97c-1.65,0 -3,-1.34 -3,-3 0,-1.65 1.34,-3 3,-3 1.65,0 3,1.34 3,3 0,1.65 -1.34,3 -3,3z"/>
  <path class="fil1" d="M30.22 14.63c-1.09,0 -1.98,0.89 -1.98,1.98 0,1.09 0.89,1.98 1.98,1.98 1.09,0 1.98,-0.89 1.98,-1.98 0,-1.09 -0.89,-1.98 -1.98,-1.98zm0 4.97c-1.65,0 -3,-1.34 -3,-3 0,-1.65 1.34,-3 3,-3 1.65,0 3,1.34 3,3 0,1.65 -1.35,3 -3,3z"/>
  <path class="fil0" d="M9.02 24.71c-0.13,0 -0.26,-0.05 -0.36,-0.15 -0.2,-0.2 -0.2,-0.52 0,-0.72l3.02 -3.02c0.2,-0.2 0.52,-0.2 0.72,0 0.2,0.2 0.2,0.52 0,0.72l-3.02 3.02c-0.1,0.1 -0.23,0.15 -0.36,0.15z"/>
  <path class="fil0" d="M21.18 12.55c-0.13,0 -0.26,-0.05 -0.36,-0.15 -0.2,-0.2 -0.2,-0.52 0,-0.72l3.02 -3.02c0.2,-0.2 0.52,-0.2 0.72,0 0.2,0.2 0.2,0.52 0,0.72l-3.02 3.02c-0.1,0.1 -0.23,0.15 -0.36,0.15z"/>
  <path class="fil1" d="M5.58 24.84c-0.77,0.77 -0.77,2.03 0,2.8 0.75,0.75 2.05,0.75 2.8,0 0.77,-0.77 0.77,-2.03 0,-2.8 -0.75,-0.75 -2.05,-0.75 -2.8,0l0 0zm1.4 4.39c-0.8,0 -1.55,-0.31 -2.12,-0.88 -1.17,-1.17 -1.17,-3.07 0,-4.24l0 0c1.13,-1.13 3.11,-1.13 4.24,0 1.17,1.17 1.17,3.07 0,4.24 -0.57,0.57 -1.32,0.88 -2.12,0.88z"/>
  <path class="fil1" d="M24.84 5.59c-0.77,0.77 -0.77,2.03 0,2.8 0.75,0.75 2.05,0.75 2.8,0 0.77,-0.77 0.77,-2.03 0,-2.8 -0.75,-0.75 -2.05,-0.75 -2.8,0zm1.4 4.4c-0.8,0 -1.55,-0.31 -2.12,-0.88 -1.17,-1.17 -1.17,-3.07 0,-4.24l0 0c1.13,-1.13 3.11,-1.13 4.24,0 1.17,1.17 1.17,3.07 0,4.24 -0.57,0.57 -1.32,0.88 -2.12,0.88z"/>
  <path class="fil1" d="M23.94 6.54c-0.07,0 -0.13,-0.01 -0.2,-0.04l-5.02 -2.09c-0.26,-0.11 -0.38,-0.41 -0.27,-0.67 0.11,-0.26 0.41,-0.38 0.67,-0.27l5.02 2.09c0.26,0.11 0.38,0.41 0.27,0.67 -0.08,0.2 -0.27,0.31 -0.47,0.31z"/>
  <path class="fil1" d="M27.19 24.45c-0.07,0 -0.13,-0.01 -0.19,-0.04 -0.26,-0.11 -0.38,-0.4 -0.28,-0.66l2.08 -5.03c0.11,-0.26 0.4,-0.38 0.66,-0.28 0.26,0.11 0.38,0.41 0.28,0.66l-2.08 5.03c-0.08,0.2 -0.27,0.32 -0.47,0.32z"/>
  <path class="fil1" d="M14.32 29.78l-0.01 0c-0.07,0 -0.13,-0.01 -0.19,-0.04l-5.03 -2.09c-0.26,-0.11 -0.38,-0.41 -0.28,-0.67 0.11,-0.26 0.41,-0.38 0.66,-0.28l5.01 2.08c0.2,0.07 0.34,0.26 0.34,0.48 0,0.28 -0.22,0.51 -0.5,0.51z"/>
  <path class="fil1" d="M3.94 14.82c-0.07,0 -0.13,-0.01 -0.2,-0.04 -0.26,-0.11 -0.38,-0.41 -0.28,-0.67l2.09 -5.03c0.11,-0.26 0.41,-0.38 0.67,-0.28 0.26,0.11 0.38,0.41 0.28,0.67l-2.09 5.03c-0.08,0.2 -0.27,0.31 -0.47,0.31z"/>
  <path class="fil1" d="M6.04 24.45c-0.2,0 -0.39,-0.12 -0.47,-0.31l-2.09 -5.03c-0.11,-0.26 0.02,-0.56 0.28,-0.67 0.26,-0.11 0.56,0.02 0.67,0.27l2.09 5.03c0.11,0.26 -0.02,0.56 -0.28,0.67 -0.06,0.03 -0.13,0.04 -0.19,0.04z"/>
  <path class="fil1" d="M18.91 29.78c-0.28,0 -0.51,-0.23 -0.51,-0.51 0,-0.23 0.15,-0.43 0.37,-0.49l4.97 -2.06c0.26,-0.11 0.56,0.02 0.67,0.28 0.11,0.26 -0.02,0.56 -0.28,0.67l-5.02 2.08c-0.06,0.03 -0.13,0.04 -0.2,0.04z"/>
  <path class="fil1" d="M29.27 14.82c-0.2,0 -0.39,-0.12 -0.47,-0.32l-2.08 -5.03c-0.11,-0.26 0.02,-0.56 0.28,-0.66 0.26,-0.11 0.56,0.02 0.66,0.28l2.08 5.03c0.11,0.26 -0.02,0.56 -0.28,0.67 -0.06,0.03 -0.13,0.04 -0.19,0.04z"/>
  <path class="fil1" d="M9.28 6.54c-0.2,0 -0.39,-0.12 -0.47,-0.31 -0.11,-0.26 0.02,-0.56 0.28,-0.67l5.03 -2.09c0.26,-0.11 0.56,0.01 0.67,0.28 0.11,0.26 -0.02,0.56 -0.28,0.67l-5.03 2.09c-0.06,0.03 -0.13,0.04 -0.19,0.04z"/>
  <path class="fil0" d="M21.97 16.61c0,2.96 -2.4,5.36 -5.36,5.36 -2.96,0 -5.36,-2.4 -5.36,-5.36 0,-2.96 2.4,-5.36 5.36,-5.36 2.96,0 5.36,2.4 5.36,5.36z"/>
 </g>
</svg>
