<?xml version="1.0" encoding="UTF-8"?>
<!DOCTYPE svg PUBLIC "-//W3C//DTD SVG 1.1//EN" "http://www.w3.org/Graphics/SVG/1.1/DTD/svg11.dtd">
<!-- Creator: CorelDRAW 2021 (64-Bit) -->
<svg xmlns="http://www.w3.org/2000/svg" xml:space="preserve" width="0.271535in" height="0.271661in" version="1.1" style="shape-rendering:geometricPrecision; text-rendering:geometricPrecision; image-rendering:optimizeQuality; fill-rule:evenodd; clip-rule:evenodd"
viewBox="0 0 19.56 19.57"
 xmlns:xlink="http://www.w3.org/1999/xlink"
 xmlns:xodm="http://www.corel.com/coreldraw/odm/2003">
 <defs>
  <style type="text/css">
   <![CDATA[
    .fil1 {fill:#222124;fill-rule:nonzero}
    .fil0 {fill:#DB353A;fill-rule:nonzero}
   ]]>
  </style>
 </defs>
 <g id="Layer_x0020_1">
  <metadata id="CorelCorpID_0Corel-Layer"/>
  <path class="fil0" d="M1.46 4.68c0,-0.5 0.32,-0.95 0.8,-1.12 0.27,0.18 0.59,0.28 0.91,0.28 0.32,-0 0.64,-0.1 0.91,-0.28 0.48,0.16 0.8,0.61 0.8,1.12l0 0.25c-0.46,0.44 -1.07,0.69 -1.71,0.69 -0.64,0 -1.25,-0.25 -1.71,-0.69l0 -0.25zm1.71 -3.47c0.57,0 1.03,0.46 1.03,1.03 -0,0.57 -0.46,1.03 -1.03,1.03 -0.57,-0 -1.03,-0.46 -1.03,-1.03 0,-0.57 0.46,-1.03 1.03,-1.03zm0 5.12c0.72,0 1.41,-0.24 1.97,-0.69l1.09 1.09c0.15,-0.18 0.32,-0.35 0.5,-0.5l-1.09 -1.09c0.45,-0.56 0.7,-1.26 0.7,-1.97 -0,-1.75 -1.42,-3.16 -3.17,-3.17 -1.75,0 -3.16,1.42 -3.17,3.17 0,1.75 1.42,3.16 3.17,3.17z"/>
  <path class="fil0" d="M18.1 18.17c-0.46,0.44 -1.07,0.69 -1.71,0.69 -0.64,-0 -1.25,-0.25 -1.71,-0.69l0 -0.25c0,-0.5 0.32,-0.95 0.8,-1.12 0.27,0.18 0.59,0.28 0.91,0.28 0.32,-0 0.64,-0.1 0.91,-0.28 0.48,0.16 0.8,0.61 0.8,1.12l0 0.25zm-1.71 -3.73c0.57,0 1.03,0.46 1.03,1.03 -0,0.57 -0.46,1.03 -1.03,1.03 -0.57,-0 -1.03,-0.46 -1.03,-1.03 0,-0.57 0.46,-1.03 1.03,-1.03l0 0zm0 -1.21c-0.72,-0 -1.41,0.24 -1.97,0.69l-1.09 -1.09c-0.15,0.18 -0.32,0.35 -0.5,0.5l1.09 1.09c-0.45,0.56 -0.69,1.26 -0.69,1.97 0,1.75 1.42,3.16 3.17,3.17 1.75,-0 3.16,-1.42 3.17,-3.17 -0,-1.75 -1.42,-3.16 -3.17,-3.17z"/>
  <path class="fil1" d="M7.62 3.25c0.17,0 0.3,-0.14 0.3,-0.3l0 0c0,-0.17 -0.14,-0.3 -0.3,-0.3l0 0c-0.17,0 -0.3,0.14 -0.3,0.3l0 0c0,0.17 0.14,0.3 0.3,0.3l0 0z"/>
  <path class="fil1" d="M11.52 3.25c0.17,0 0.3,-0.14 0.3,-0.3l0 0c0,-0.17 -0.14,-0.3 -0.3,-0.3l0 0c-0.17,0 -0.3,0.14 -0.3,0.3l0 0c0,0.17 0.14,0.3 0.3,0.3l0 0z"/>
  <path class="fil1" d="M9.57 3.25c0.17,0 0.3,-0.14 0.3,-0.3l0 0c0,-0.17 -0.14,-0.3 -0.3,-0.3l0 0c-0.17,0 -0.3,0.14 -0.3,0.3l0 0c-0,0.17 0.13,0.3 0.3,0.3 0,0 0,0 0.01,0z"/>
  <path class="fil1" d="M7.62 15.88c-0.17,0 -0.3,0.14 -0.3,0.3l0 0c0,0.17 0.14,0.3 0.3,0.3l0 0c0.17,0 0.3,-0.14 0.3,-0.3l0 0c0,-0.17 -0.13,-0.3 -0.3,-0.3 -0,0 -0,0 -0.01,0z"/>
  <path class="fil1" d="M11.52 15.88c-0.17,0 -0.3,0.14 -0.3,0.3l0 0c0,0.17 0.14,0.3 0.3,0.3l0 0c0.17,0 0.3,-0.14 0.3,-0.3l0 0c0,-0.17 -0.13,-0.3 -0.3,-0.3 -0,0 -0,0 -0.01,0z"/>
  <path class="fil1" d="M9.57 15.88c-0.17,0 -0.3,0.14 -0.3,0.3l0 0c0,0.17 0.14,0.3 0.3,0.3l0 0c0.17,0 0.3,-0.14 0.3,-0.3l0 0c0,-0.17 -0.14,-0.3 -0.3,-0.3l0 0z"/>
  <path class="fil1" d="M16.19 7.31c-0.17,-0 -0.3,0.14 -0.3,0.3l0 0c0,0.17 0.14,0.3 0.3,0.3l0 0c0.17,0 0.3,-0.14 0.3,-0.3l0 0c0,-0.16 -0.13,-0.3 -0.29,-0.3 -0,-0 -0.01,-0 -0.01,0z"/>
  <path class="fil1" d="M16.19 11.21c-0.17,0 -0.3,0.14 -0.3,0.3 0,0 0,0 0,0 0,0.17 0.14,0.3 0.3,0.3l0 0c0.17,0 0.3,-0.14 0.3,-0.3l0 0c0,-0.16 -0.13,-0.3 -0.29,-0.3 -0,-0 -0.01,-0 -0.01,0z"/>
  <path class="fil1" d="M16.19 9.26c-0.17,0 -0.3,0.14 -0.3,0.3l0 0c0,0.17 0.14,0.3 0.3,0.3l0 0c0.17,0 0.3,-0.14 0.3,-0.3l0 0c0,-0.17 -0.13,-0.3 -0.3,-0.3 -0,0 -0,0 -0.01,0z"/>
  <path class="fil1" d="M2.95 7.31c-0.17,-0 -0.3,0.14 -0.3,0.3l0 0c0,0.17 0.14,0.3 0.3,0.3l0 0c0.17,0 0.3,-0.14 0.3,-0.3l0 0c0,-0.17 -0.14,-0.3 -0.3,-0.3l0 0z"/>
  <path class="fil1" d="M2.95 11.21c-0.17,0 -0.3,0.14 -0.3,0.3 0,0 0,0 0,0 0,0.17 0.14,0.3 0.3,0.3l0 0c0.17,0 0.3,-0.14 0.3,-0.3l0 0c0,-0.17 -0.14,-0.3 -0.3,-0.3l0 0z"/>
  <path class="fil1" d="M2.95 9.26c-0.17,0 -0.3,0.14 -0.3,0.3l0 0c0,0.17 0.14,0.3 0.3,0.3l0 0c0.17,0 0.3,-0.14 0.3,-0.3l0 0c0,-0.17 -0.14,-0.3 -0.3,-0.3l0 0z"/>
  <path class="fil0" d="M14.68 4.68c0,-0.5 0.32,-0.95 0.8,-1.12 0.27,0.18 0.59,0.28 0.91,0.28 0.32,-0 0.64,-0.1 0.91,-0.28 0.48,0.16 0.8,0.61 0.8,1.12l0 0.25c-0.46,0.44 -1.07,0.69 -1.71,0.69 -0.64,0 -1.25,-0.25 -1.71,-0.69l0 -0.25zm1.71 -3.47c0.57,0 1.03,0.46 1.03,1.03 -0,0.57 -0.46,1.03 -1.03,1.03 -0.57,-0 -1.03,-0.46 -1.03,-1.03 0,-0.57 0.46,-1.03 1.03,-1.03zm-3.07 5.53l1.09 -1.09c0.56,0.45 1.26,0.69 1.97,0.69 1.75,-0 3.16,-1.42 3.17,-3.17 -0,-1.75 -1.42,-3.16 -3.17,-3.17 -1.75,0 -3.16,1.42 -3.17,3.17 -0,0.72 0.24,1.41 0.69,1.97l-1.09 1.09c0.18,0.15 0.35,0.32 0.5,0.5z"/>
  <path class="fil0" d="M4.87 18.17c-0.46,0.44 -1.07,0.69 -1.71,0.69 -0.64,-0 -1.25,-0.25 -1.71,-0.69l0 -0.25c0,-0.5 0.32,-0.95 0.8,-1.12 0.27,0.18 0.59,0.28 0.91,0.28 0.32,-0 0.64,-0.1 0.91,-0.28 0.48,0.16 0.8,0.61 0.8,1.12l0 0.25zm-1.7 -3.73c0.57,0 1.03,0.46 1.03,1.03 -0,0.57 -0.46,1.03 -1.03,1.03 -0.57,-0 -1.03,-0.46 -1.03,-1.03 0,-0.57 0.46,-1.03 1.03,-1.03l0 0zm3.06 -1.61l-1.09 1.09c-0.56,-0.45 -1.25,-0.69 -1.97,-0.69 -1.75,0 -3.16,1.42 -3.17,3.17 0,1.75 1.42,3.16 3.17,3.17 1.75,-0 3.16,-1.42 3.17,-3.17 0,-0.72 -0.24,-1.42 -0.7,-1.97l1.09 -1.09c-0.17,-0.16 -0.34,-0.33 -0.5,-0.5z"/>
  <path class="fil0" d="M11.68 9.21l-2.11 2.11c-0.09,0.09 -0.22,0.15 -0.36,0.14 -0.13,0 -0.26,-0.05 -0.36,-0.14l-1.05 -1.05c-0.2,-0.19 -0.2,-0.51 -0.01,-0.7 0,-0 0,-0 0.01,-0.01 0.19,-0.2 0.5,-0.2 0.7,-0.01 0,0 0,0 0.01,0.01l0.69 0.69 1.75 -1.75c0.19,-0.19 0.51,-0.2 0.7,-0.01 0,0 0,0 0.01,0.01 0.2,0.18 0.22,0.48 0.04,0.68 -0.01,0.01 -0.02,0.02 -0.02,0.03l0 0zm-1.9 -3.45c-2.22,0 -4.02,1.8 -4.02,4.02 0,2.22 1.8,4.02 4.02,4.02 2.22,-0 4.02,-1.8 4.02,-4.02 -0,-2.22 -1.8,-4.02 -4.02,-4.02z"/>
 </g>
</svg>
