<?xml version="1.0" encoding="UTF-8"?>
<!DOCTYPE svg PUBLIC "-//W3C//DTD SVG 1.1//EN" "http://www.w3.org/Graphics/SVG/1.1/DTD/svg11.dtd">
<!-- Creator: CorelDRAW 2021 (64-Bit) -->
<svg xmlns="http://www.w3.org/2000/svg" xml:space="preserve" width="0.277181in" height="0.338594in" version="1.1" style="shape-rendering:geometricPrecision; text-rendering:geometricPrecision; image-rendering:optimizeQuality; fill-rule:evenodd; clip-rule:evenodd"
viewBox="0 0 20.96 25.61"
 xmlns:xlink="http://www.w3.org/1999/xlink"
 xmlns:xodm="http://www.corel.com/coreldraw/odm/2003">
 <defs>
  <style type="text/css">
   <![CDATA[
    .fil2 {fill:#222124}
    .fil0 {fill:#DB353A}
    .fil1 {fill:#FEFEFE;fill-rule:nonzero}
   ]]>
  </style>
 </defs>
 <g id="Layer_x0020_1">
  <metadata id="CorelCorpID_0Corel-Layer"/>
  <path class="fil0" d="M19.68 9.16c0,5.05 -4.11,9.16 -9.16,9.16 -5.06,0 -9.16,-4.11 -9.16,-9.16 0,-5.06 4.11,-9.16 9.16,-9.16 5.06,0 9.16,4.11 9.16,9.16l0 0z"/>
  <path class="fil1" d="M12.09 1.87l0 0.85c-0.28,0.05 -0.95,0.46 -1.13,1.1 -0.08,0.28 -0.13,0.54 -0.18,0.77l-0.87 0c0.05,-0.28 0.1,-0.64 0.21,-1 0.36,-1.1 1.31,-1.69 1.98,-1.72z"/>
  <path class="fil1" d="M14.57 9.34c0.03,2.64 -1.18,5.21 -3.77,6.24 -0.03,0.05 -0.05,0.05 -0.08,0.1 -0.21,0.28 -0.64,0.28 -0.85,0 -0.03,-0.05 -0.05,-0.05 -0.08,-0.1 -2.59,-1.05 -3.8,-3.59 -3.77,-6.24l8.54 0z"/>
  <path class="fil1" d="M15.37 7.95l0 0.85 -10.11 0 0 -0.85c0,-1.67 1.36,-3.03 3.03,-3.03l4.03 0c1.69,0 3.05,1.36 3.05,3.03z"/>
  <path class="fil2" d="M20.71 24.15l0.26 0 0 1.44 -0.23 0 -0.64 -1.03 0.03 1.03 -0.26 0 0 -1.44 0.26 0 0.64 1.03 -0.05 -1.03zm-1.77 0l0 1.44 -0.26 0 0 -1.44 0.26 0zm-1.41 0.92l-0.21 -0.67 -0.21 0.67 0.41 0zm0.08 0.23l-0.54 0 -0.08 0.28 -0.28 0 0.49 -1.44 0.31 0 0.49 1.44 -0.28 0 -0.1 -0.28zm-1.33 -0.92l-0.41 0 0 1.21 -0.28 0 0 -1.21 -0.39 0 0 -0.26 1.08 0 0 0.26zm-1.77 -0.23l0 1.44 -0.26 0 0 -1.44 0.26 0zm-1.9 0.23l0 0.46 0.1 0c0.15,0 0.26,0 0.33,-0.03 0.05,-0.03 0.1,-0.08 0.1,-0.21 0,-0.03 0,-0.13 -0.1,-0.18 -0.05,-0.03 -0.1,-0.05 -0.21,-0.05l-0.23 0 0 0zm-0.28 -0.23l0.59 0c0.08,0 0.26,0 0.39,0.18 0.08,0.1 0.08,0.23 0.08,0.28 0,0.03 0,0.1 -0.03,0.15 -0.03,0.05 -0.1,0.18 -0.26,0.23l0.33 0.59 -0.31 0 -0.28 -0.54 -0.26 0 0 0.54 -0.26 0 0 -1.44zm-1.72 0.77l0 0.44 0.31 0c0.1,0 0.21,0 0.26,-0.08 0.03,-0.03 0.05,-0.05 0.05,-0.13 0,-0.05 0,-0.13 -0.13,-0.21 -0.08,-0.03 -0.18,-0.03 -0.33,-0.03l-0.15 0 0 0zm0 -0.56l0 0.36 0.1 0c0.08,0 0.15,0 0.2,0 0.08,0 0.13,0 0.18,-0.08 0.03,-0.03 0.05,-0.05 0.05,-0.1 0,-0.03 0,-0.05 -0.03,-0.1 -0.08,-0.08 -0.21,-0.08 -0.28,-0.08l-0.23 0 0 0zm-0.28 -0.21l0.51 0c0.08,0 0.15,0 0.21,0 0.05,0 0.15,0.03 0.26,0.13 0.03,0.03 0.1,0.1 0.1,0.23 0,0.05 0,0.18 -0.13,0.26 -0.03,0.03 -0.08,0.03 -0.1,0.05 0.03,0 0.05,0 0.1,0.05 0.08,0.05 0.21,0.13 0.21,0.33 0,0.15 -0.05,0.28 -0.18,0.33 -0.13,0.08 -0.26,0.05 -0.39,0.08l-0.56 0 0 -1.46 -0.03 0zm-1.77 0.23l-0.41 0 0 1.21 -0.28 0 0 -1.21 -0.39 0 0 -0.26 1.08 0 0 0.26zm-1.92 0.69l-0.21 -0.67 -0.21 0.67 0.41 0zm0.08 0.23l-0.54 0 -0.08 0.28 -0.31 0 0.49 -1.44 0.31 0 0.49 1.44 -0.28 0 -0.08 -0.28zm-2.36 -0.92l0 0.33 0.69 0 0 0.23 -0.69 0 0 0.39 0.82 0 0 0.26 -1.08 0 0 -1.44 1.03 0 0 0.23 -0.77 0 0 0zm-1.87 0l0 0.46 0.1 0c0.15,0 0.26,0 0.33,-0.03 0.05,-0.03 0.1,-0.08 0.1,-0.21 0,-0.03 0,-0.13 -0.1,-0.18 -0.05,-0.03 -0.1,-0.05 -0.21,-0.05l-0.23 0 0 0zm-0.28 -0.23l0.59 0c0.08,0 0.26,0 0.38,0.18 0.08,0.1 0.08,0.23 0.08,0.28 0,0.03 0,0.1 -0.03,0.15 -0.03,0.05 -0.1,0.18 -0.26,0.23l0.33 0.59 -0.31 0 -0.28 -0.54 -0.26 0 0 0.54 -0.26 0 0 -1.44zm-0.87 0.64l0 0.8 -0.23 0 0 -0.13c-0.13,0.1 -0.23,0.15 -0.41,0.15 -0.08,0 -0.28,0 -0.46,-0.18 -0.08,-0.08 -0.21,-0.26 -0.21,-0.56 0,-0.18 0.05,-0.39 0.18,-0.51 0.08,-0.08 0.23,-0.26 0.54,-0.26 0.05,0 0.13,0 0.23,0.05 0.1,0.03 0.28,0.13 0.36,0.39l-0.26 0.1c-0.03,-0.08 -0.1,-0.28 -0.36,-0.28 -0.05,0 -0.15,0 -0.26,0.1 -0.08,0.08 -0.15,0.21 -0.15,0.41 0,0.05 0,0.28 0.15,0.41 0.08,0.05 0.15,0.08 0.26,0.08 0.15,0 0.28,-0.08 0.33,-0.21 0,-0.03 0.03,-0.05 0.03,-0.13l-0.36 0 0 -0.23 0.62 0 0 0z"/>
 </g>
</svg>
