<?xml version="1.0" encoding="UTF-8"?>
<!DOCTYPE svg PUBLIC "-//W3C//DTD SVG 1.1//EN" "http://www.w3.org/Graphics/SVG/1.1/DTD/svg11.dtd">
<!-- Creator: CorelDRAW 2021 (64-Bit) -->
<svg xmlns="http://www.w3.org/2000/svg" xml:space="preserve" width="0.199661in" height="0.272571in" version="1.1" style="shape-rendering:geometricPrecision; text-rendering:geometricPrecision; image-rendering:optimizeQuality; fill-rule:evenodd; clip-rule:evenodd"
viewBox="0 0 8.21 11.21"
 xmlns:xlink="http://www.w3.org/1999/xlink"
 xmlns:xodm="http://www.corel.com/coreldraw/odm/2003">
 <defs>
  <style type="text/css">
   <![CDATA[
    .fil1 {fill:#222124;fill-rule:nonzero}
    .fil0 {fill:#DB353A;fill-rule:nonzero}
   ]]>
  </style>
 </defs>
 <g id="Layer_x0020_1">
  <metadata id="CorelCorpID_0Corel-Layer"/>
  <path class="fil0" d="M4.59 4.29c0.13,-0.22 0.37,-0.35 0.62,-0.35 0.12,0 0.25,0.03 0.37,0.1 0.16,0.1 0.28,0.25 0.32,0.44 0.04,0.19 0.01,0.38 -0.07,0.54 -0.1,0.16 -0.25,0.28 -0.44,0.32 -0.19,0.04 -0.38,0.01 -0.54,-0.07 -0.34,-0.21 -0.44,-0.65 -0.25,-0.99zm2.28 1.94c0.15,-0.22 0.31,-0.46 0.44,-0.69 0.28,-0.49 0.49,-0.97 0.62,-1.46 -0.01,0 -0.03,0 -0.03,-0.01l-3.47 -2.06c-0.01,0 -0.01,-0.01 -0.03,-0.03 -0.37,0.35 -0.71,0.76 -0.99,1.25 -0.76,1.29 -1.31,2.74 -1.53,3.96l1.31 0.78 1.38 0.82c0.34,-0.28 0.68,-0.6 1.01,-0.96l1.28 -1.6z"/>
  <path class="fil1" d="M8 3.82c0.49,-2 -0.03,-3.82 -0.03,-3.82 0,0 -1.84,0.43 -3.37,1.81l3.4 2.01z"/>
  <path class="fil1" d="M4.71 9.15l-1.01 -0.6 -0.32 0.54 0.19 1.81 0.53 0.31 0.72 -1.22c0.09,-0.16 0.13,-0.34 0.1,-0.5 -0.01,-0.13 -0.09,-0.26 -0.21,-0.34z"/>
  <path class="fil1" d="M2.53 7.87l-1.01 -0.6c-0.12,-0.07 -0.26,-0.07 -0.41,-0.03 -0.15,0.06 -0.29,0.18 -0.38,0.32l-0.72 1.22 0.53 0.31 1.69 -0.71 0.31 -0.51z"/>
  <polygon class="fil0" points="1.68,9.8 2.75,8 3.47,8.43 2.4,10.23 "/>
 </g>
</svg>
