<?xml version="1.0" encoding="UTF-8"?>
<!DOCTYPE svg PUBLIC "-//W3C//DTD SVG 1.1//EN" "http://www.w3.org/Graphics/SVG/1.1/DTD/svg11.dtd">
<!-- Creator: CorelDRAW 2021 (64-Bit) -->
<svg xmlns="http://www.w3.org/2000/svg" xml:space="preserve" width="0.265862in" height="0.227445in" version="1.1" style="shape-rendering:geometricPrecision; text-rendering:geometricPrecision; image-rendering:optimizeQuality; fill-rule:evenodd; clip-rule:evenodd"
viewBox="0 0 48.83 41.78"
 xmlns:xlink="http://www.w3.org/1999/xlink"
 xmlns:xodm="http://www.corel.com/coreldraw/odm/2003">
 <defs>
  <style type="text/css">
   <![CDATA[
    .str0 {stroke:#222124;stroke-width:0.72;stroke-miterlimit:4}
    .fil3 {fill:none;fill-rule:nonzero}
    .fil2 {fill:#FEFEFE;fill-rule:nonzero}
    .fil0 {fill:#222124;fill-rule:nonzero}
    .fil1 {fill:#DB353A;fill-rule:nonzero}
   ]]>
  </style>
 </defs>
 <g id="Layer_x0020_1">
  <metadata id="CorelCorpID_0Corel-Layer"/>
  <polygon class="fil0" points="2.67,5.63 28.74,5.63 28.74,0 2.67,0 "/>
  <polygon class="fil0" points="-0,14.12 26.07,14.12 26.07,8.49 -0,8.49 "/>
  <path class="fil0" d="M21.63 22.62c0.98,-2.17 2.43,-4.09 4.25,-5.63l-23.21 0 0 5.63 18.96 0z"/>
  <path class="fil0" d="M20.25 29.13c0.01,-1.27 0.18,-2.53 0.49,-3.75l-20.64 0 0 5.63 20.34 0c-0.17,-0.61 -0.24,-1.25 -0.2,-1.88z"/>
  <path class="fil0" d="M1.78 33.87l0 5.63 22.22 0c-1.39,-1.67 -2.46,-3.58 -3.16,-5.63l-19.06 0z"/>
  <path class="fil1" d="M36.12 36.64c-4.2,0 -7.6,-3.4 -7.6,-7.6 0,-4.2 3.41,-7.61 7.6,-7.61 4.2,0 7.6,3.4 7.6,7.61 -0.07,4.17 -3.43,7.53 -7.6,7.6zm12.72 -6.79l0 -1.61c-0.42,-6.66 -5.95,-11.94 -12.72,-11.95 -7.04,0 -12.74,5.71 -12.74,12.74 0,7.04 5.71,12.74 12.74,12.74 6.76,-0 12.29,-5.27 12.71,-11.92z"/>
  <path class="fil2" d="M36.12 20.64c4.64,0 8.39,3.76 8.39,8.39 0,4.64 -3.76,8.39 -8.39,8.39 -4.64,0 -8.39,-3.76 -8.39,-8.39 0,-4.64 3.76,-8.39 8.39,-8.39z"/>
  <path class="fil3 str0" d="M36.12 21c4.44,0 8.03,3.6 8.03,8.03 0,4.44 -3.6,8.03 -8.03,8.03 -4.44,0 -8.03,-3.6 -8.03,-8.03 0,-4.44 3.6,-8.03 8.03,-8.03z"/>
 </g>
</svg>
