<?xml version="1.0" encoding="UTF-8"?>
<!DOCTYPE svg PUBLIC "-//W3C//DTD SVG 1.1//EN" "http://www.w3.org/Graphics/SVG/1.1/DTD/svg11.dtd">
<!-- Creator: CorelDRAW 2021 (64-Bit) -->
<svg xmlns="http://www.w3.org/2000/svg" xml:space="preserve" width="0.0904252in" height="0.174039in" version="1.1" style="shape-rendering:geometricPrecision; text-rendering:geometricPrecision; image-rendering:optimizeQuality; fill-rule:evenodd; clip-rule:evenodd"
viewBox="0 0 10.06 19.37"
 xmlns:xlink="http://www.w3.org/1999/xlink"
 xmlns:xodm="http://www.corel.com/coreldraw/odm/2003">
 <defs>
  <style type="text/css">
   <![CDATA[
    .fil0 {fill:#DB353A;fill-rule:nonzero}
   ]]>
  </style>
 </defs>
 <g id="Layer_x0020_1">
  <metadata id="CorelCorpID_0Corel-Layer"/>
  <path class="fil0" d="M10.06 0.14l0 3.07 -1.83 0c-0.71,0 -1.16,0.16 -1.38,0.47 -0.21,0.31 -0.32,0.71 -0.32,1.2l0 2.2 3.4 0 -0.45 3.44 -2.96 0 0 8.84 -3.56 0 0 -8.84 -2.98 0 0 -3.44 2.98 0 0 -2.53c0,-0.75 0.11,-1.4 0.33,-1.95 0.22,-0.57 0.52,-1.05 0.9,-1.44 0.39,-0.39 0.85,-0.68 1.4,-0.87 0.54,-0.21 1.15,-0.31 1.81,-0.31 0.63,0 1.18,0.02 1.67,0.05 0.49,0.03 0.81,0.07 0.98,0.09z"/>
 </g>
</svg>
