<?xml version="1.0" encoding="UTF-8"?>
<!DOCTYPE svg PUBLIC "-//W3C//DTD SVG 1.1//EN" "http://www.w3.org/Graphics/SVG/1.1/DTD/svg11.dtd">
<!-- Creator: CorelDRAW 2021 (64-Bit) -->
<svg xmlns="http://www.w3.org/2000/svg" xml:space="preserve" width="0.24224in" height="0.338594in" version="1.1" style="shape-rendering:geometricPrecision; text-rendering:geometricPrecision; image-rendering:optimizeQuality; fill-rule:evenodd; clip-rule:evenodd"
viewBox="0 0 23.28 32.54"
 xmlns:xlink="http://www.w3.org/1999/xlink"
 xmlns:xodm="http://www.corel.com/coreldraw/odm/2003">
 <defs>
  <style type="text/css">
   <![CDATA[
    .fil2 {fill:#222124}
    .fil0 {fill:#DB353A}
    .fil1 {fill:#FEFEFE;fill-rule:nonzero}
   ]]>
  </style>
 </defs>
 <g id="Layer_x0020_1">
  <metadata id="CorelCorpID_0Corel-Layer"/>
  <path class="fil0" d="M23.28 11.64c0,6.42 -5.22,11.64 -11.64,11.64 -6.42,0 -11.64,-5.22 -11.64,-11.64 0,-6.42 5.22,-11.64 11.64,-11.64 6.42,0 11.64,5.22 11.64,11.64l0 0z"/>
  <path class="fil1" d="M12.32 10.76c3.75,-0.06 6.06,-0.88 6.1,-2.58l0 -0.09c-0.03,-1.71 -1.92,-1.87 -1.92,-1.87 0,0 -0.2,-1.96 -1.96,-1.92 -1.73,0.03 -2.54,2.41 -2.58,6.29 -0.03,-3.88 -0.85,-6.23 -2.58,-6.29 -1.79,-0.03 -1.96,1.92 -1.96,1.92 0,0 -1.96,0.2 -1.92,1.96 0.03,1.7 2.35,2.51 6.1,2.58 -3.75,0.07 -6.06,0.88 -6.1,2.58 -0.03,1.79 1.92,1.96 1.92,1.96 0,0 0.2,1.96 1.96,1.92 1.34,-0.03 2.15,-1.47 2.45,-3.95 0,0.26 -0.03,0.55 -0.07,0.81 -0.03,0.29 -0.07,0.62 -0.1,0.95 -0.03,0.33 -0.07,0.65 -0.13,0.98 -0.07,0.33 -0.13,0.62 -0.23,0.95 -0.1,0.29 -0.2,0.59 -0.29,0.85 -0.13,0.26 -0.26,0.52 -0.39,0.75 -0.03,0.06 -0.07,0.1 -0.1,0.16 -0.03,0.07 -0.07,0.1 -0.1,0.16 -0.03,0.03 -0.03,0.07 -0.07,0.07 -0.03,0.03 -0.03,0.06 -0.07,0.06 -0.03,0.03 -0.07,0.1 -0.1,0.13 -0.03,0.03 -0.07,0.1 -0.1,0.13 -0.03,0.03 -0.07,0.1 -0.1,0.13 -0.07,0.07 -0.13,0.16 -0.2,0.23 -0.07,0.07 -0.13,0.13 -0.2,0.2 -0.07,0.07 -0.13,0.1 -0.16,0.16 -0.03,0.03 -0.03,0.03 -0.07,0.07 -0.03,0.03 -0.03,0.03 -0.07,0.07 -0.03,0.03 -0.07,0.07 -0.1,0.1 -0.07,0.07 -0.1,0.07 -0.1,0.07l0.75 0.75c0,0 0.03,-0.03 0.1,-0.1 0.03,-0.03 0.07,-0.07 0.1,-0.1 0.03,-0.03 0.03,-0.03 0.07,-0.06 0.03,-0.03 0.03,-0.07 0.07,-0.1 0.03,-0.07 0.1,-0.13 0.16,-0.2 0.07,-0.07 0.13,-0.16 0.2,-0.23 0.07,-0.1 0.13,-0.16 0.2,-0.26 0.03,-0.07 0.07,-0.1 0.1,-0.16 0.03,-0.07 0.07,-0.1 0.1,-0.16 0.03,-0.07 0.07,-0.1 0.1,-0.16 0.03,-0.03 0.03,-0.07 0.07,-0.1 0.03,-0.03 0.03,-0.07 0.07,-0.1 0.03,-0.07 0.07,-0.13 0.1,-0.2 0.03,-0.07 0.07,-0.13 0.1,-0.2 0.13,-0.26 0.26,-0.59 0.36,-0.88 0.1,-0.33 0.2,-0.65 0.26,-0.98 0.07,-0.33 0.1,-0.68 0.13,-1.01 0.03,-0.33 0.03,-0.68 0.03,-1.01 0,-0.33 0,-0.65 0,-0.98 0,-0.29 -0.03,-0.59 -0.03,-0.85 0.29,2.48 1.08,3.95 2.45,3.98 1.79,0.03 1.96,-1.92 1.96,-1.92 0,0 1.64,-0.16 1.89,-1.54l0 -0.69c-0.3,-1.48 -2.56,-2.21 -6.1,-2.27z"/>
  <path class="fil2" d="M19.37 31.79l0 0.72 -0.33 0 0 -0.72 -0.62 -1.11 0.39 0 0.39 0.75 0.39 -0.75 0.39 0 -0.62 1.11zm-2.18 -1.11l0.33 0 0 1.83 -0.29 0 -0.81 -1.3 0.03 1.3 -0.33 0 0 -1.83 0.33 0 0.82 1.3 -0.07 -1.3zm-2.54 1.17l-0.26 -0.85 -0.26 0.85 0.52 0zm0.1 0.29l-0.68 0 -0.1 0.36 -0.36 0 0.62 -1.83 0.39 0 0.62 1.83 -0.36 0 -0.13 -0.36zm-2.05 -1.47l0 1.83 -0.33 0 0.03 -1.5 -0.39 1.5 -0.33 0 -0.39 -1.5 0.03 1.5 -0.33 0 0 -1.83 0.49 0 0.36 1.37 0.36 -1.37 0.49 0zm-3.78 0.29l0 0.59 0.13 0c0.2,0 0.33,0 0.42,-0.03 0.07,-0.03 0.13,-0.1 0.13,-0.26 0,-0.03 0,-0.16 -0.13,-0.23 -0.07,-0.03 -0.13,-0.07 -0.26,-0.07l-0.29 0 0 0zm-0.33 -0.29l0.75 0c0.1,0 0.33,0 0.49,0.23 0.1,0.13 0.1,0.29 0.1,0.36 0,0.03 0,0.13 -0.03,0.2 -0.03,0.07 -0.13,0.23 -0.33,0.29l0.42 0.75 -0.39 0 -0.36 -0.68 -0.33 0 0 0.68 -0.33 0 0 -1.83zm-2.02 0.29l0 0.42 0.88 0 0 0.29 -0.88 0 0 0.49 1.04 0 0 0.33 -1.37 0 0 -1.83 1.3 0 0 0.29 -0.98 0 0 0zm-1.47 0.52l0 1.01 -0.29 0 0 -0.16c-0.16,0.13 -0.29,0.2 -0.52,0.2 -0.1,0 -0.36,0 -0.59,-0.23 -0.1,-0.1 -0.26,-0.33 -0.26,-0.72 0,-0.23 0.07,-0.49 0.23,-0.65 0.1,-0.1 0.29,-0.33 0.68,-0.33 0.07,0 0.16,0 0.29,0.07 0.13,0.03 0.36,0.16 0.46,0.49l-0.33 0.13c-0.03,-0.1 -0.13,-0.36 -0.46,-0.36 -0.07,0 -0.2,0 -0.33,0.13 -0.1,0.1 -0.2,0.26 -0.2,0.52 0,0.07 0,0.36 0.2,0.52 0.1,0.07 0.2,0.1 0.33,0.1 0.2,0 0.36,-0.1 0.42,-0.26 0,-0.03 0.03,-0.07 0.03,-0.16l-0.46 0 0 -0.29 0.78 0 0 0z"/>
 </g>
</svg>
