<?xml version="1.0" encoding="UTF-8"?>
<!DOCTYPE svg PUBLIC "-//W3C//DTD SVG 1.1//EN" "http://www.w3.org/Graphics/SVG/1.1/DTD/svg11.dtd">
<!-- Creator: CorelDRAW 2021 (64-Bit) -->
<svg xmlns="http://www.w3.org/2000/svg" xml:space="preserve" width="0.270665in" height="0.270665in" version="1.1" style="shape-rendering:geometricPrecision; text-rendering:geometricPrecision; image-rendering:optimizeQuality; fill-rule:evenodd; clip-rule:evenodd"
viewBox="0 0 15 15"
 xmlns:xlink="http://www.w3.org/1999/xlink"
 xmlns:xodm="http://www.corel.com/coreldraw/odm/2003">
 <defs>
  <style type="text/css">
   <![CDATA[
    .str0 {stroke:#FEFEFE;stroke-width:0.22;stroke-miterlimit:4}
    .fil2 {fill:none;fill-rule:nonzero}
    .fil0 {fill:#222124;fill-rule:nonzero}
    .fil1 {fill:#DB353A;fill-rule:nonzero}
   ]]>
  </style>
 </defs>
 <g id="Layer_x0020_1">
  <metadata id="CorelCorpID_0Corel-Layer"/>
  <path class="fil0" d="M5.44 7.5c0,-0.39 0.01,-0.77 0.04,-1.15l-2.53 0c-0.2,0.75 -0.2,1.54 0,2.3l2.53 0c-0.03,-0.38 -0.04,-0.77 -0.04,-1.15z"/>
  <path class="fil0" d="M6.33 2.95c-1.39,0.36 -2.55,1.34 -3.13,2.66l2.36 0c0.14,-1.06 0.39,-2 0.77,-2.66z"/>
  <path class="fil0" d="M3.21 9.37c0.58,1.32 1.73,2.3 3.12,2.66 -0.37,-0.65 -0.63,-1.6 -0.77,-2.66l-2.35 0z"/>
  <path class="fil0" d="M8.72 5.62c-0.25,-1.76 -0.8,-2.82 -1.21,-2.82 -0.41,0 -0.97,1.06 -1.21,2.82l2.41 0z"/>
  <path class="fil0" d="M6.17 7.5c0,0.4 0.02,0.79 0.04,1.15l2.58 0c0.03,-0.37 0.04,-0.75 0.04,-1.15 0,-0.4 -0.01,-0.79 -0.04,-1.15l-2.58 0c-0.03,0.36 -0.04,0.74 -0.04,1.15z"/>
  <path class="fil0" d="M6.29 9.37c0.25,1.76 0.8,2.82 1.21,2.82 0.41,0 0.97,-1.06 1.21,-2.82l-2.41 0z"/>
  <path class="fil0" d="M9.56 7.5c0,0.39 -0.02,0.77 -0.04,1.15l2.53 0c0.2,-0.75 0.2,-1.54 0,-2.3l-2.53 0c0.03,0.37 0.04,0.76 0.04,1.15z"/>
  <path class="fil0" d="M8.68 2.95c0.37,0.65 0.63,1.6 0.77,2.66l2.36 0c-0.59,-1.32 -1.74,-2.29 -3.13,-2.66z"/>
  <path class="fil0" d="M8.68 12.04c1.39,-0.36 2.54,-1.34 3.12,-2.66l-2.35 0c-0.13,1.06 -0.4,2.01 -0.77,2.66z"/>
  <path class="fil1" d="M1.34 2.91l0.42 -0.42 1.07 1.07c0.07,0.07 0.19,0.07 0.26,0 0,-0 0,-0 0,-0l0.48 -0.48c0.07,-0.07 0.07,-0.19 0,-0.26 -0,-0 -0,-0 -0,-0l-1.07 -1.07 0.42 -0.42c0.07,-0.07 0.07,-0.18 0,-0.24 -0.03,-0.03 -0.07,-0.05 -0.1,-0.05l-1.79 -0.21c-0.09,-0.01 -0.18,0.06 -0.19,0.15 -0,0.01 -0,0.02 0,0.04l0.21 1.79c0.01,0.09 0.09,0.16 0.19,0.15 0.04,-0 0.08,-0.02 0.1,-0.05z"/>
  <path class="fil1" d="M3.09 11.44c-0.07,-0.07 -0.19,-0.07 -0.26,-0 -0,0 -0,0 -0,0l-1.07 1.07 -0.42 -0.42c-0.07,-0.07 -0.18,-0.07 -0.24,-0 -0.03,0.03 -0.05,0.07 -0.05,0.1l-0.21 1.79c-0.01,0.09 0.06,0.18 0.15,0.19 0.01,0 0.02,0 0.04,0l1.79 -0.21c0.09,-0.01 0.16,-0.1 0.15,-0.19 -0,-0.04 -0.02,-0.07 -0.05,-0.1l-0.42 -0.42 1.07 -1.07c0.07,-0.07 0.07,-0.19 0,-0.26 -0,-0 -0,-0 -0,-0l-0.48 -0.48z"/>
  <path class="fil1" d="M13.67 12.09l-0.42 0.42 -1.07 -1.07c-0.07,-0.07 -0.19,-0.07 -0.26,-0 -0,0 -0,0 -0,0l-0.48 0.48c-0.07,0.07 -0.07,0.19 -0,0.26 0,0 0,0 0,0l1.07 1.07 -0.42 0.42c-0.07,0.07 -0.07,0.18 -0,0.24 0.03,0.03 0.07,0.05 0.1,0.05l1.79 0.21c0.09,0.01 0.18,-0.06 0.19,-0.15 0,-0.01 0,-0.02 0,-0.04l-0.21 -1.79c-0.01,-0.09 -0.1,-0.16 -0.19,-0.15 -0.04,0 -0.07,0.02 -0.1,0.05z"/>
  <path class="fil1" d="M11.92 3.56c0.07,0.07 0.19,0.08 0.26,0 0,-0 0,-0 0,-0l1.07 -1.07 0.42 0.42c0.07,0.07 0.18,0.07 0.24,0 0.03,-0.03 0.05,-0.07 0.05,-0.1l0.21 -1.79c0.01,-0.09 -0.06,-0.18 -0.15,-0.19 -0.01,-0 -0.02,-0 -0.04,0l-1.79 0.21c-0.09,0.01 -0.16,0.1 -0.15,0.19 0,0.04 0.02,0.07 0.05,0.1l0.42 0.42 -1.07 1.07c-0.07,0.07 -0.07,0.19 -0,0.26 0,0 0,0 0,0l0.48 0.48z"/>
  <path class="fil0" d="M1.3 7.5c0,-0.33 -0.27,-0.6 -0.6,-0.6 -0.33,0 -0.6,0.27 -0.6,0.6 0,0.33 0.27,0.6 0.6,0.6 0.33,0 0.6,-0.27 0.6,-0.6 0,-0 0,-0 0,-0z"/>
  <path class="fil2 str0" d="M1.3 7.5c0,-0.33 -0.27,-0.6 -0.6,-0.6 -0.33,0 -0.6,0.27 -0.6,0.6 0,0.33 0.27,0.6 0.6,0.6 0.33,0 0.6,-0.27 0.6,-0.6 0,-0 0,-0 0,-0z"/>
  <path class="fil0" d="M0.88 5.85c0.31,0.11 0.65,-0.06 0.76,-0.37 0.11,-0.31 -0.06,-0.65 -0.37,-0.76 -0.31,-0.11 -0.65,0.06 -0.76,0.37 -0.11,0.31 0.06,0.65 0.37,0.76z"/>
  <path class="fil2 str0" d="M0.88 5.85c0.31,0.11 0.65,-0.06 0.76,-0.37 0.11,-0.31 -0.06,-0.65 -0.37,-0.76 -0.31,-0.11 -0.65,0.06 -0.76,0.37 -0.11,0.31 0.06,0.65 0.37,0.76z"/>
  <path class="fil0" d="M1.27 10.28c0.31,-0.11 0.48,-0.45 0.37,-0.76 -0.11,-0.31 -0.45,-0.47 -0.76,-0.37 -0.31,0.11 -0.48,0.45 -0.37,0.76 0,0 0,0 0,0 0.11,0.31 0.45,0.47 0.76,0.37z"/>
  <path class="fil2 str0" d="M1.27 10.28c0.31,-0.11 0.48,-0.45 0.37,-0.76 -0.11,-0.31 -0.45,-0.47 -0.76,-0.37 -0.31,0.11 -0.48,0.45 -0.37,0.76 0,0 0,0 0,0 0.11,0.31 0.45,0.47 0.76,0.37z"/>
  <path class="fil0" d="M14.29 6.9c-0.33,0 -0.6,0.27 -0.6,0.6 0,0.33 0.27,0.6 0.6,0.6 0.33,0 0.6,-0.27 0.6,-0.6 -0,-0.33 -0.27,-0.59 -0.6,-0.6z"/>
  <path class="fil2 str0" d="M14.29 6.9c-0.33,0 -0.6,0.27 -0.6,0.6 0,0.33 0.27,0.6 0.6,0.6 0.33,0 0.6,-0.27 0.6,-0.6 -0,-0.33 -0.27,-0.59 -0.6,-0.6z"/>
  <path class="fil0" d="M14.12 9.15c-0.31,-0.11 -0.65,0.06 -0.76,0.37 -0.11,0.31 0.06,0.65 0.37,0.76 0.31,0.11 0.65,-0.06 0.76,-0.37 0,0 0,-0 0,-0 0.11,-0.31 -0.06,-0.65 -0.37,-0.76z"/>
  <path class="fil2 str0" d="M14.12 9.15c-0.31,-0.11 -0.65,0.06 -0.76,0.37 -0.11,0.31 0.06,0.65 0.37,0.76 0.31,0.11 0.65,-0.06 0.76,-0.37 0,0 0,-0 0,-0 0.11,-0.31 -0.06,-0.65 -0.37,-0.76z"/>
  <path class="fil0" d="M13.73 4.72c-0.31,0.11 -0.48,0.45 -0.37,0.76 0.11,0.31 0.45,0.48 0.76,0.37 0.31,-0.11 0.47,-0.45 0.37,-0.76 0,0 0,-0 0,-0 -0.11,-0.31 -0.45,-0.47 -0.76,-0.37z"/>
  <path class="fil2 str0" d="M13.73 4.72c-0.31,0.11 -0.48,0.45 -0.37,0.76 0.11,0.31 0.45,0.48 0.76,0.37 0.31,-0.11 0.47,-0.45 0.37,-0.76 0,0 0,-0 0,-0 -0.11,-0.31 -0.45,-0.47 -0.76,-0.37z"/>
  <path class="fil0" d="M7.5 1.3c0.33,0 0.6,-0.27 0.6,-0.6 0,-0.33 -0.27,-0.6 -0.6,-0.6 -0.33,0 -0.6,0.27 -0.6,0.6 -0,0.33 0.27,0.6 0.6,0.6 0,0 0,0 0,0z"/>
  <path class="fil2 str0" d="M7.5 1.3c0.33,0 0.6,-0.27 0.6,-0.6 0,-0.33 -0.27,-0.6 -0.6,-0.6 -0.33,0 -0.6,0.27 -0.6,0.6 -0,0.33 0.27,0.6 0.6,0.6 0,0 0,0 0,0z"/>
  <path class="fil0" d="M9.52 1.64c0.31,0.11 0.65,-0.06 0.76,-0.37 0.11,-0.31 -0.06,-0.65 -0.37,-0.76 -0.31,-0.11 -0.65,0.06 -0.76,0.37l0 0c-0.11,0.31 0.06,0.65 0.37,0.76z"/>
  <path class="fil2 str0" d="M9.52 1.64c0.31,0.11 0.65,-0.06 0.76,-0.37 0.11,-0.31 -0.06,-0.65 -0.37,-0.76 -0.31,-0.11 -0.65,0.06 -0.76,0.37l0 0c-0.11,0.31 0.06,0.65 0.37,0.76z"/>
  <path class="fil0" d="M5.48 1.64c0.31,-0.11 0.47,-0.45 0.37,-0.76 -0.11,-0.31 -0.45,-0.47 -0.76,-0.37 -0.31,0.11 -0.47,0.45 -0.37,0.76 0,0 0,0 0,0 0.11,0.31 0.45,0.47 0.76,0.37z"/>
  <path class="fil2 str0" d="M5.48 1.64c0.31,-0.11 0.47,-0.45 0.37,-0.76 -0.11,-0.31 -0.45,-0.47 -0.76,-0.37 -0.31,0.11 -0.47,0.45 -0.37,0.76 0,0 0,0 0,0 0.11,0.31 0.45,0.47 0.76,0.37z"/>
  <path class="fil0" d="M7.5 13.7c-0.33,0 -0.6,0.27 -0.6,0.6 0,0.33 0.27,0.6 0.6,0.6 0.33,0 0.6,-0.27 0.6,-0.6 0,-0.33 -0.27,-0.6 -0.6,-0.6 -0,0 -0,0 -0,0z"/>
  <path class="fil2 str0" d="M7.5 13.7c-0.33,0 -0.6,0.27 -0.6,0.6 0,0.33 0.27,0.6 0.6,0.6 0.33,0 0.6,-0.27 0.6,-0.6 0,-0.33 -0.27,-0.6 -0.6,-0.6 -0,0 -0,0 -0,0z"/>
  <path class="fil0" d="M5.48 13.36c-0.31,-0.11 -0.65,0.06 -0.76,0.37 -0.11,0.31 0.06,0.65 0.37,0.76 0.31,0.11 0.65,-0.06 0.76,-0.37 0,0 0,0 0,-0 0.11,-0.31 -0.06,-0.65 -0.37,-0.76z"/>
  <path class="fil2 str0" d="M5.48 13.36c-0.31,-0.11 -0.65,0.06 -0.76,0.37 -0.11,0.31 0.06,0.65 0.37,0.76 0.31,0.11 0.65,-0.06 0.76,-0.37 0,0 0,0 0,-0 0.11,-0.31 -0.06,-0.65 -0.37,-0.76z"/>
  <path class="fil0" d="M9.52 13.36c-0.31,0.11 -0.47,0.45 -0.37,0.76 0.11,0.31 0.45,0.47 0.76,0.37 0.31,-0.11 0.48,-0.45 0.37,-0.76 -0,0 -0,0 -0,0 -0.11,-0.31 -0.45,-0.47 -0.76,-0.37z"/>
  <path class="fil2 str0" d="M9.52 13.36c-0.31,0.11 -0.47,0.45 -0.37,0.76 0.11,0.31 0.45,0.47 0.76,0.37 0.31,-0.11 0.48,-0.45 0.37,-0.76 -0,0 -0,0 -0,0 -0.11,-0.31 -0.45,-0.47 -0.76,-0.37z"/>
 </g>
</svg>
