<?xml version="1.0" encoding="UTF-8"?>
<!DOCTYPE svg PUBLIC "-//W3C//DTD SVG 1.1//EN" "http://www.w3.org/Graphics/SVG/1.1/DTD/svg11.dtd">
<!-- Creator: CorelDRAW 2021 (64-Bit) -->
<svg xmlns="http://www.w3.org/2000/svg" xml:space="preserve" width="0.330213in" height="0.273846in" version="1.1" style="shape-rendering:geometricPrecision; text-rendering:geometricPrecision; image-rendering:optimizeQuality; fill-rule:evenodd; clip-rule:evenodd"
viewBox="0 0 68.79 57.05"
 xmlns:xlink="http://www.w3.org/1999/xlink"
 xmlns:xodm="http://www.corel.com/coreldraw/odm/2003">
 <defs>
  <style type="text/css">
   <![CDATA[
    .fil1 {fill:#222124;fill-rule:nonzero}
    .fil0 {fill:#DB353A;fill-rule:nonzero}
   ]]>
  </style>
 </defs>
 <g id="Layer_x0020_1">
  <metadata id="CorelCorpID_0Corel-Layer"/>
  <polygon class="fil0" points="19.23,3.12 21.2,7.07 25.56,7.79 22.45,10.91 23.17,15.27 19.23,13.2 15.28,15.28 16,10.91 12.78,7.79 17.25,7.07 "/>
  <polygon class="fil0" points="51.85,3.12 49.88,7.07 45.41,7.79 48.63,10.91 47.9,15.27 51.85,13.19 55.8,15.27 54.97,10.91 58.19,7.79 53.83,7.06 "/>
  <path class="fil1" d="M24.63 39.18l-6.65 0c-0.57,0 -1.04,0.47 -1.04,1.04l0 15.8c0,0.57 0.47,1.04 1.04,1.04l6.65 0c0.57,-0 1.04,-0.47 1.04,-1.04l0 -15.8c-0.04,-0.56 -0.48,-1 -1.04,-1.04z"/>
  <path class="fil0" d="M53.1 39.49c0.02,-1.3 -1.01,-2.37 -2.31,-2.39 -0.03,-0 -0.05,-0 -0.08,0l-11.12 0c0,0 0.83,-3.74 0.52,-6.13 -0.31,-2.39 -0.52,-4.05 -1.14,-5.3 -2.29,-4.26 -3.95,-1.87 -3.95,-1.87 0,0 -0.31,6.55 -0.83,8.11 -0.73,2.49 -6.13,7.69 -6.13,7.69 -0.6,0.57 -0.94,1.36 -0.94,2.18l0 12.68c-0.02,1.13 0.88,2.06 2,2.08 0.02,0 0.05,0 0.08,0l18.91 0c0.86,-0.03 1.65,-0.5 2.08,-1.25 0.67,-1.17 0.26,-2.66 -0.91,-3.32 -0.33,-0.18 -0.69,-0.29 -1.06,-0.31l1.14 0c1.3,0.02 2.37,-1.01 2.39,-2.31 0,-0.03 0,-0.05 0,-0.08 -0,-1.17 -0.83,-2.16 -1.97,-2.39l0 0c1.32,-0 2.39,-1.08 2.39,-2.4 -0,-1.04 -0.67,-1.95 -1.66,-2.27l0 -0.1c1.4,-0.09 2.51,-1.21 2.6,-2.6z"/>
  <polygon class="fil0" points="35.96,-0 37.93,4.05 42.29,4.68 39.18,7.79 39.91,12.16 35.96,10.08 32.01,12.16 32.73,7.79 29.51,4.68 33.98,4.05 "/>
  <polygon class="fil0" points="62.45,14.24 64.43,18.29 68.79,18.91 65.57,22.03 66.4,26.39 62.45,24.32 58.4,26.39 59.23,22.03 56.01,18.91 60.48,18.29 "/>
  <polygon class="fil0" points="6.44,14.24 8.42,18.29 12.78,18.91 9.66,22.03 10.39,26.39 6.44,24.32 2.49,26.39 3.22,22.03 -0,18.91 4.47,18.29 "/>
 </g>
</svg>
