<?xml version="1.0" encoding="UTF-8"?>
<!DOCTYPE svg PUBLIC "-//W3C//DTD SVG 1.1//EN" "http://www.w3.org/Graphics/SVG/1.1/DTD/svg11.dtd">
<!-- Creator: CorelDRAW 2021 (64-Bit) -->
<svg xmlns="http://www.w3.org/2000/svg" xml:space="preserve" width="0.255331in" height="0.255331in" version="1.1" style="shape-rendering:geometricPrecision; text-rendering:geometricPrecision; image-rendering:optimizeQuality; fill-rule:evenodd; clip-rule:evenodd"
viewBox="0 0 19.93 19.93"
 xmlns:xlink="http://www.w3.org/1999/xlink"
 xmlns:xodm="http://www.corel.com/coreldraw/odm/2003">
 <defs>
  <style type="text/css">
   <![CDATA[
    .fil0 {fill:#DB353A}
   ]]>
  </style>
 </defs>
 <g id="Layer_x0020_1">
  <metadata id="CorelCorpID_0Corel-Layer"/>
  <path class="fil0" d="M1.31 11.6c0,0 -0.06,-0.82 0.36,-1.72 0.42,-0.9 1.47,-1.46 1.47,-1.46 -0.65,0.77 -0.98,1.54 -0.91,2.31 1.07,-0.38 2.08,-0.88 3.98,0.14 0.75,-0.37 1.41,-0.58 1.88,-0.41 -0.79,0.25 -1.32,0.66 -1.83,1.09 -1.37,-0.52 -2.73,-0.94 -3.82,0.14l0.86 0.88c0,0 -0.5,-0.11 -1.07,-0.33 -0.58,-0.23 -0.92,-0.62 -0.92,-0.62zm-1.31 -1.63c0,5.5 4.46,9.97 9.97,9.97 1.83,0 3.55,-0.5 5.03,-1.36 0.04,-0.36 0.2,-2.27 -0.72,-3.94 -1,-1.81 -2.93,-2.94 -2.93,-2.94 0,0 0.88,0.99 0.95,2.26 0.1,1.6 -0.61,2.06 -0.61,2.06 0,0 0.42,-2.08 -1.27,-3.18 -1.69,-1.1 -3.19,-0.01 -3.19,-0.01 0,0 0.52,0.17 0.87,0.46 0.39,0.33 0.47,0.83 0.47,0.83 0,0 -0.44,-0.47 -1.08,-0.53 -0.64,-0.07 -1.16,0.06 -1.64,0.04 -0.49,-0.02 -0.87,-0.19 -0.87,-0.19 0,0 -0.01,0.3 0.36,0.61 0.37,0.31 0.82,0.47 0.82,0.47 0,0 -1.17,0.2 -2.08,-0.22 -1.09,-0.5 -1.63,-1.21 -1.63,-1.21 5.09,-0.33 5,-3.27 9.2,-2.01 4.14,1.24 5.25,5.33 5.39,5.93 0.59,-0.59 1.11,-1.26 1.53,-1.99 -0.29,-0.46 -1.84,-2.84 -4.32,-4.05 -2.75,-1.34 -5.18,-0.93 -5.18,-0.93 0,0 -0.33,-0.36 -1,-0.48 -0.67,-0.12 -1.85,0.28 -1.85,0.28l-3.17 -0.34c0,0 0.71,-0.44 1.42,-0.66 0.71,-0.22 1.25,-0.16 1.44,-0.23 0.45,-0.16 0.27,-0.79 1.06,-1.11 0.81,-0.34 1.5,0.1 1.5,0.1 0,0 1.2,-0.53 2.57,-2.29 1.37,-1.76 1.36,-4.23 1.36,-4.23 0,0 0.4,1.3 0.09,2.8 -0.32,1.5 -1.54,3.58 -1.54,3.58 0,0 0.79,-0.51 1.7,-1.64 0.89,-1.1 1.13,-2.65 1.13,-2.65 0,0 0.15,1.19 -0.24,2.46 -0.37,1.19 -1.12,2.22 -1.12,2.22 0,0 0.81,-0.2 1.39,-1.03 0.48,-0.69 0.7,-1.85 0.7,-1.85 0,0 0.13,0.76 -0.04,1.82 -0.17,1.06 -0.92,1.82 -0.92,1.82 0,0 0.95,-0.29 1.26,-0.99 0.3,-0.71 0.39,-1.39 0.39,-1.39 0,0 0.17,0.5 0.12,1.51 -0.05,1.01 -1.07,1.71 -1.07,1.71 0,0 1.48,0.65 2.91,1.53 1.24,0.76 2.15,1.47 2.41,1.67 0.24,-0.85 0.37,-1.75 0.37,-2.68 0,-5.5 -4.46,-9.97 -9.97,-9.97 -5.5,0 -9.97,4.46 -9.97,9.97z"/>
 </g>
</svg>
