<?xml version="1.0" encoding="UTF-8"?>
<!DOCTYPE svg PUBLIC "-//W3C//DTD SVG 1.1//EN" "http://www.w3.org/Graphics/SVG/1.1/DTD/svg11.dtd">
<!-- Creator: CorelDRAW 2021 (64-Bit) -->
<svg xmlns="http://www.w3.org/2000/svg" xml:space="preserve" width="0.316193in" height="0.297839in" version="1.1" style="shape-rendering:geometricPrecision; text-rendering:geometricPrecision; image-rendering:optimizeQuality; fill-rule:evenodd; clip-rule:evenodd"
viewBox="0 0 37.37 35.2"
 xmlns:xlink="http://www.w3.org/1999/xlink"
 xmlns:xodm="http://www.corel.com/coreldraw/odm/2003">
 <defs>
  <style type="text/css">
   <![CDATA[
    .str0 {stroke:#FEFEFE;stroke-width:0.93;stroke-miterlimit:4}
    .fil2 {fill:none;fill-rule:nonzero}
    .fil1 {fill:#222124;fill-rule:nonzero}
    .fil0 {fill:#DB353A;fill-rule:nonzero}
   ]]>
  </style>
 </defs>
 <g id="Layer_x0020_1">
  <metadata id="CorelCorpID_0Corel-Layer"/>
  <path class="fil0" d="M8.12 10.56c2.68,0 4.86,-2.17 4.86,-4.86 0,-2.68 -2.17,-4.86 -4.86,-4.86 -2.68,0 -4.86,2.17 -4.86,4.86 0,2.68 2.17,4.86 4.86,4.86l0 0z"/>
  <path class="fil0" d="M16.16 19.51l0 -2.25c-0.01,-2.79 -2.06,-5.15 -4.82,-5.55 -1,0.54 -2.12,0.82 -3.26,0.83 -1.14,0 -2.26,-0.28 -3.26,-0.83 -2.76,0.4 -4.81,2.76 -4.82,5.55l0 2.25c-0.01,0.27 0.21,0.5 0.48,0.51 0.01,0 0.02,0 0.02,0l15.11 0c0.29,0.01 0.53,-0.22 0.54,-0.51z"/>
  <path class="fil1" d="M24.46 20.02c0,2.68 2.17,4.86 4.86,4.86 2.68,0 4.86,-2.17 4.86,-4.86 0,-2.68 -2.17,-4.86 -4.86,-4.86 -2.68,0 -4.86,2.17 -4.86,4.86l0 0z"/>
  <path class="fil1" d="M32.58 26.03c-1,0.54 -2.12,0.82 -3.26,0.83 -1.14,0 -2.26,-0.28 -3.26,-0.83 -2.76,0.4 -4.81,2.76 -4.82,5.55l0 2.25c-0.01,0.27 0.21,0.5 0.48,0.51 0.01,0 0.02,0 0.02,0l15.11 0c0.27,0.01 0.5,-0.21 0.51,-0.48 0,-0.01 0,-0.02 0,-0.02l0 -2.25c0.02,-2.79 -2.02,-5.16 -4.78,-5.55z"/>
  <path class="fil1" d="M21.6 7.84l-1.67 -1.67 8.3 0 0 5.44c0,0.6 0.49,1.09 1.09,1.09 0.6,0 1.09,-0.49 1.09,-1.09l0 -6.52c0.01,-0.59 -0.46,-1.08 -1.05,-1.09 -0.01,0 -0.03,0 -0.04,0l-9.42 0 1.67 -1.67c0.42,-0.44 0.41,-1.14 -0.03,-1.56 -0.43,-0.41 -1.1,-0.41 -1.53,0l-3.52 3.52c-0.21,0.2 -0.33,0.47 -0.33,0.76 -0.01,0.29 0.11,0.57 0.33,0.76l3.52 3.52c0.2,0.2 0.48,0.32 0.76,0.33 0.29,0 0.56,-0.12 0.76,-0.33 0.43,-0.36 0.49,-0.99 0.13,-1.42 -0.02,-0.02 -0.04,-0.04 -0.06,-0.06z"/>
  <path class="fil2 str0" d="M21.6 7.84l-1.67 -1.67 8.3 0 0 5.44c0,0.6 0.49,1.09 1.09,1.09 0.6,0 1.09,-0.49 1.09,-1.09l0 -6.52c0.01,-0.59 -0.46,-1.08 -1.05,-1.09 -0.01,0 -0.03,0 -0.04,0l-9.42 0 1.67 -1.67c0.42,-0.44 0.41,-1.14 -0.03,-1.56 -0.43,-0.41 -1.1,-0.41 -1.53,0l-3.52 3.52c-0.21,0.2 -0.33,0.47 -0.33,0.76 -0.01,0.29 0.11,0.57 0.33,0.76l3.52 3.52c0.2,0.2 0.48,0.32 0.76,0.33 0.29,0 0.56,-0.12 0.76,-0.33 0.43,-0.36 0.49,-0.99 0.13,-1.42 -0.02,-0.02 -0.04,-0.04 -0.06,-0.06z"/>
  <path class="fil0" d="M14.28 25.78c-0.44,-0.42 -1.14,-0.41 -1.56,0.03 -0.41,0.43 -0.41,1.11 0,1.53l1.67 1.67 -8.3 0 0 -5.44c0,-0.6 -0.49,-1.09 -1.09,-1.09 -0.6,0 -1.09,0.49 -1.09,1.09l0 6.52c-0.01,0.59 0.46,1.08 1.05,1.09 0.01,0 0.03,0 0.04,0l9.42 0 -1.67 1.67c-0.43,0.42 -0.44,1.12 -0.01,1.55 0,0 0.01,0.01 0.01,0.01 0.2,0.2 0.47,0.32 0.76,0.33 0.29,0 0.56,-0.12 0.76,-0.33l3.52 -3.52c0.21,-0.2 0.33,-0.47 0.33,-0.76 0.01,-0.29 -0.11,-0.57 -0.33,-0.76l-3.52 -3.59z"/>
  <path class="fil2 str0" d="M14.28 25.78c-0.44,-0.42 -1.14,-0.41 -1.56,0.03 -0.41,0.43 -0.41,1.11 0,1.53l1.67 1.67 -8.3 0 0 -5.44c0,-0.6 -0.49,-1.09 -1.09,-1.09 -0.6,0 -1.09,0.49 -1.09,1.09l0 6.52c-0.01,0.59 0.46,1.08 1.05,1.09 0.01,0 0.03,0 0.04,0l9.42 0 -1.67 1.67c-0.43,0.42 -0.44,1.12 -0.01,1.55 0,0 0.01,0.01 0.01,0.01 0.2,0.2 0.47,0.32 0.76,0.33 0.29,0 0.56,-0.12 0.76,-0.33l3.52 -3.52c0.21,-0.2 0.33,-0.47 0.33,-0.76 0.01,-0.29 -0.11,-0.57 -0.33,-0.76l-3.52 -3.59z"/>
 </g>
</svg>
