<?xml version="1.0" encoding="UTF-8"?>
<!DOCTYPE svg PUBLIC "-//W3C//DTD SVG 1.1//EN" "http://www.w3.org/Graphics/SVG/1.1/DTD/svg11.dtd">
<!-- Creator: CorelDRAW 2021 (64-Bit) -->
<svg xmlns="http://www.w3.org/2000/svg" xml:space="preserve" width="0.284055in" height="0.284043in" version="1.1" style="shape-rendering:geometricPrecision; text-rendering:geometricPrecision; image-rendering:optimizeQuality; fill-rule:evenodd; clip-rule:evenodd"
viewBox="0 0 21.46 21.46"
 xmlns:xlink="http://www.w3.org/1999/xlink"
 xmlns:xodm="http://www.corel.com/coreldraw/odm/2003">
 <defs>
  <style type="text/css">
   <![CDATA[
    .fil0 {fill:#2F3131}
    .fil1 {fill:#DB353A}
   ]]>
  </style>
 </defs>
 <g id="Layer_x0020_1">
  <metadata id="CorelCorpID_0Corel-Layer"/>
  <path class="fil0" d="M19.39 7.2l-4.23 0c-0.33,0 -0.33,-0.5 0,-0.5l4.23 0c0.33,0 0.33,0.5 0,0.5z"/>
  <path class="fil0" d="M10.77 5.68c-0.14,0 -0.25,-0.11 -0.25,-0.25l0 -3.36c0,-0.33 0.5,-0.33 0.5,0l0 3.36c0,0.14 -0.11,0.25 -0.25,0.25z"/>
  <path class="fil0" d="M10.77 2.32c-0.64,0 -1.16,-0.52 -1.16,-1.16 0,-0.64 0.52,-1.16 1.16,-1.16 0.64,0 1.16,0.52 1.16,1.16 0,0.64 -0.52,1.16 -1.16,1.16z"/>
  <path class="fil0" d="M14.59 5.67l-1.43 0c-0.33,0 -0.33,-0.5 0,-0.5l1.18 0 0 -3.11c0,-0.33 0.5,-0.33 0.5,0l0 3.36c0,0.14 -0.11,0.25 -0.25,0.25z"/>
  <path class="fil0" d="M8.32 5.67l-1.37 0c-0.14,0 -0.25,-0.11 -0.25,-0.25l0 -3.36c0,-0.33 0.5,-0.33 0.5,0l0 3.11 1.12 0c0.33,0 0.33,0.5 0,0.5z"/>
  <path class="fil0" d="M14.59 2.32c-0.64,0 -1.16,-0.52 -1.16,-1.16 0,-0.64 0.52,-1.16 1.16,-1.16 0.64,0 1.16,0.52 1.16,1.16 0,0.64 -0.52,1.16 -1.16,1.16z"/>
  <path class="fil0" d="M6.95 2.32c-0.64,0 -1.16,-0.52 -1.16,-1.16 0,-0.64 0.52,-1.16 1.16,-1.16 0.64,0 1.16,0.52 1.16,1.16 0,0.64 -0.52,1.16 -1.16,1.16z"/>
  <path class="fil0" d="M19.39 11.02l-2.96 0c-0.33,0 -0.33,-0.5 0,-0.5l2.96 0c0.33,0 0.33,0.5 0,0.5z"/>
  <path class="fil0" d="M20.3 11.93c-0.64,0 -1.16,-0.52 -1.16,-1.16 0,-0.64 0.52,-1.16 1.16,-1.16 0.64,0 1.16,0.52 1.16,1.16 0,0.64 -0.52,1.16 -1.16,1.16z"/>
  <path class="fil0" d="M19.39 14.84l-4.4 0c-0.31,0 -0.25,-0.35 -0.25,-0.56 0,-0.3 0.5,-0.39 0.5,0.06l4.15 0c0.33,0 0.33,0.5 0,0.5z"/>
  <path class="fil0" d="M20.3 15.75c-0.64,0 -1.16,-0.52 -1.16,-1.16 0,-0.64 0.52,-1.16 1.16,-1.16 0.64,0 1.16,0.52 1.16,1.16 0,0.64 -0.52,1.16 -1.16,1.16z"/>
  <path class="fil0" d="M20.3 8.11c-0.64,0 -1.16,-0.52 -1.16,-1.16 0,-0.64 0.52,-1.16 1.16,-1.16 0.64,0 1.16,0.52 1.16,1.16 0,0.64 -0.52,1.16 -1.16,1.16z"/>
  <path class="fil0" d="M10.68 19.64c-0.14,0 -0.25,-0.11 -0.25,-0.25l0 -3.99c0,-0.33 0.5,-0.33 0.5,0l0 3.99c0,0.14 -0.11,0.25 -0.25,0.25z"/>
  <path class="fil0" d="M10.68 21.46c-0.64,0 -1.16,-0.52 -1.16,-1.16 0,-0.64 0.52,-1.16 1.16,-1.16 0.64,0 1.16,0.52 1.16,1.16 0,0.64 -0.52,1.16 -1.16,1.16z"/>
  <path class="fil0" d="M6.86 19.64c-0.14,0 -0.25,-0.11 -0.25,-0.25l0 -3.36c0,-0.14 0.11,-0.25 0.25,-0.25l1.6 0c0.33,0 0.33,0.5 0,0.5l-1.35 0 0 3.11c0,0.14 -0.11,0.25 -0.25,0.25z"/>
  <path class="fil0" d="M14.5 19.64c-0.14,0 -0.25,-0.11 -0.25,-0.25l0 -3.11 -0.96 0c-0,0 -0.01,0.01 -0.02,0.01l0 -0c0.25,-0.2 0.46,-0.52 0.46,-0.52 0.5,0 1.03,-0.1 1.03,0.25l0 3.36c0,0.14 -0.11,0.25 -0.25,0.25z"/>
  <path class="fil0" d="M6.86 21.46c-0.64,0 -1.16,-0.52 -1.16,-1.16 0,-0.64 0.52,-1.16 1.16,-1.16 0.64,0 1.16,0.52 1.16,1.16 0,0.64 -0.52,1.16 -1.16,1.16z"/>
  <path class="fil0" d="M14.5 21.46c-0.64,0 -1.16,-0.52 -1.16,-1.16 0,-0.64 0.52,-1.16 1.16,-1.16 0.64,0 1.16,0.52 1.16,1.16 0,0.64 -0.52,1.16 -1.16,1.16z"/>
  <path class="fil0" d="M5.07 10.93l-3 0c-0.33,0 -0.33,-0.5 0,-0.5l3 0c0.33,0 0.33,0.5 0,0.5z"/>
  <path class="fil0" d="M1.16 11.84c-0.64,0 -1.16,-0.52 -1.16,-1.16 0,-0.64 0.52,-1.16 1.16,-1.16 0.64,0 1.16,0.52 1.16,1.16 0,0.64 -0.52,1.16 -1.16,1.16z"/>
  <path class="fil0" d="M6.47 7.11l-4.4 0c-0.33,0 -0.33,-0.5 0,-0.5l4.4 0c0.33,0 0.33,0.5 0,0.5z"/>
  <path class="fil0" d="M6.62 14.75l-4.55 0c-0.33,0 -0.33,-0.5 0,-0.5l4.55 0c0.33,0 0.33,0.5 0,0.5z"/>
  <path class="fil0" d="M1.16 8.02c-0.64,0 -1.16,-0.52 -1.16,-1.16 0,-0.64 0.52,-1.16 1.16,-1.16 0.64,0 1.16,0.52 1.16,1.16 0,0.64 -0.52,1.16 -1.16,1.16z"/>
  <path class="fil0" d="M1.16 15.66c-0.64,0 -1.16,-0.52 -1.16,-1.16 0,-0.64 0.52,-1.16 1.16,-1.16 0.64,0 1.16,0.52 1.16,1.16 0,0.64 -0.52,1.16 -1.16,1.16z"/>
  <path class="fil1" d="M13.27 16.3c-0.1,0.07 -0.52,0.43 -1.23,0.43 -0.45,0 -0.87,-0.15 -1.22,-0.42 -1.12,0.88 -2.8,0.31 -3.13,-1.09 -1.47,-0.08 -2.34,-1.69 -1.6,-2.96 -1.56,-0.58 -1.76,-2.72 -0.31,-3.56 -0.4,-1.28 0.57,-2.61 1.96,-2.56 0.21,-1.42 1.95,-2.01 2.99,-1.03 1.01,-0.98 2.71,-0.46 2.99,0.93 1.35,-0.13 2.32,1.23 1.82,2.46 1.64,0.68 1.6,3.03 -0.05,3.66 0.75,1.16 -0.06,2.73 -1.48,2.75 -0.02,0.31 -0.12,0.61 -0.28,0.88 0,0 -0.21,0.31 -0.46,0.52l0 0z"/>
 </g>
</svg>
