<?xml version="1.0" encoding="UTF-8"?>
<!DOCTYPE svg PUBLIC "-//W3C//DTD SVG 1.1//EN" "http://www.w3.org/Graphics/SVG/1.1/DTD/svg11.dtd">
<!-- Creator: CorelDRAW 2021 (64-Bit) -->
<svg xmlns="http://www.w3.org/2000/svg" xml:space="preserve" width="0.296579in" height="0.251524in" version="1.1" style="shape-rendering:geometricPrecision; text-rendering:geometricPrecision; image-rendering:optimizeQuality; fill-rule:evenodd; clip-rule:evenodd"
viewBox="0 0 18.07 15.32"
 xmlns:xlink="http://www.w3.org/1999/xlink"
 xmlns:xodm="http://www.corel.com/coreldraw/odm/2003">
 <defs>
  <style type="text/css">
   <![CDATA[
    .fil0 {fill:#222124;fill-rule:nonzero}
    .fil1 {fill:#DB353A;fill-rule:nonzero}
   ]]>
  </style>
 </defs>
 <g id="Layer_x0020_1">
  <metadata id="CorelCorpID_0Corel-Layer"/>
  <path class="fil0" d="M12.32 9.9l-0.75 -0.75 0.45 -0.22c0.05,-0.03 0.07,-0.1 0.04,-0.15 -0.01,-0.03 -0.04,-0.04 -0.07,-0.05l-1.92 -0.67c-0.05,-0.02 -0.11,0.01 -0.12,0.07 -0.01,0.02 -0.01,0.04 0,0.06l0.67 1.92c0.02,0.06 0.08,0.09 0.13,0.08 0.03,-0.01 0.05,-0.03 0.07,-0.05l0.22 -0.45 0.75 0.75c0.03,0.04 0.09,0.05 0.13,0.02 0.01,-0.01 0.01,-0.01 0.02,-0.02l0.37 -0.37c0.05,-0.03 0.05,-0.1 0,-0.15z"/>
  <path class="fil1" d="M12.07 15.32c-0.02,-0.41 -0.39,-0.56 -0.8,-0.56l-0.39 0 -0.34 -1.53 -3.06 0 -0.34 1.53 -0.39 0c-0.41,0 -0.78,0.15 -0.8,0.56l6.12 0z"/>
  <path class="fil1" d="M16.88 10.93c0.01,0.13 -0.09,0.24 -0.22,0.24 -0.01,0 -0.02,0 -0.03,0l-15.18 0c-0.13,0.01 -0.24,-0.09 -0.24,-0.22 -0,-0.01 -0,-0.02 0,-0.03l0 -9.32c-0.01,-0.13 0.09,-0.24 0.22,-0.24 0.01,-0 0.02,-0 0.03,0l15.17 0c0.13,-0.01 0.24,0.09 0.24,0.22 0,0.01 0,0.02 0,0.03l0 9.32 0 0zm-7.84 -10.56c0.15,0 0.27,0.12 0.27,0.27 0,0.15 -0.12,0.27 -0.27,0.27l-0.02 0c-0.13,-0.02 -0.22,-0.14 -0.22,-0.27 -0,-0.14 0.1,-0.26 0.24,-0.27l0 0zm8.09 -0.36l-16.17 0c-0.52,-0.01 -0.94,0.4 -0.95,0.92 -0,0.01 -0,0.02 0,0.03l0 10.83c-0.01,0.52 0.4,0.94 0.92,0.95 0.01,0 0.02,0 0.03,0l16.17 0c0.52,0.01 0.94,-0.4 0.95,-0.92 0,-0.01 0,-0.02 0,-0.03l0 -10.88c-0.02,-0.51 -0.44,-0.9 -0.95,-0.9z"/>
  <path class="fil1" d="M9.97 7.52l0 0c0.15,-0.06 0.32,-0.08 0.48,-0.07 0.13,0 0.26,0.04 0.37,0.11 0.2,0.08 0.37,0.22 0.48,0.41 0.05,-0.13 0.07,-0.27 0.07,-0.41 0.03,-0.48 -0.14,-0.96 -0.48,-1.3l0.67 -1.19c0.04,0 0.07,0.04 0.11,0.04 0.56,0.05 1.06,-0.36 1.11,-0.93 0.05,-0.56 -0.36,-1.06 -0.93,-1.11 -0.56,-0.05 -1.06,0.36 -1.11,0.93 -0.03,0.29 0.07,0.57 0.26,0.78l-0.67 1.19c-0.15,-0.04 -0.26,-0.07 -0.41,-0.11 -0.44,-0.04 -0.87,0.11 -1.19,0.41l-2.12 -1.49c0.03,-0.07 0.04,-0.15 0.04,-0.22 0.05,-0.56 -0.36,-1.06 -0.93,-1.11 -0.56,-0.05 -1.06,0.36 -1.11,0.93 -0.05,0.56 0.36,1.06 0.93,1.11 0.26,0.02 0.51,-0.06 0.71,-0.22l2.12 1.49c-0.09,0.16 -0.14,0.34 -0.15,0.52 -0.01,0.17 0.01,0.35 0.04,0.52l-1.45 0.63c-0.17,-0.2 -0.41,-0.32 -0.67,-0.33 -0.56,-0.05 -1.06,0.36 -1.11,0.93 -0.05,0.56 0.36,1.06 0.93,1.11 0.56,0.05 1.06,-0.36 1.11,-0.93l0 -0.19 1.45 -0.63c0.21,0.3 0.53,0.51 0.89,0.59l-0.04 -0.11c-0.2,-0.53 0.06,-1.13 0.59,-1.34z"/>
 </g>
</svg>
