<?xml version="1.0" encoding="UTF-8"?>
<!DOCTYPE svg PUBLIC "-//W3C//DTD SVG 1.1//EN" "http://www.w3.org/Graphics/SVG/1.1/DTD/svg11.dtd">
<!-- Creator: CorelDRAW 2021 (64-Bit) -->
<svg xmlns="http://www.w3.org/2000/svg" xml:space="preserve" width="0.160705in" height="0.153547in" version="1.1" style="shape-rendering:geometricPrecision; text-rendering:geometricPrecision; image-rendering:optimizeQuality; fill-rule:evenodd; clip-rule:evenodd"
viewBox="0 0 19.89 19.01"
 xmlns:xlink="http://www.w3.org/1999/xlink"
 xmlns:xodm="http://www.corel.com/coreldraw/odm/2003">
 <defs>
  <style type="text/css">
   <![CDATA[
    .fil0 {fill:#DB353A;fill-rule:nonzero}
   ]]>
  </style>
 </defs>
 <g id="Layer_x0020_1">
  <metadata id="CorelCorpID_0Corel-Layer"/>
  <path class="fil0" d="M4.51 6.16l0 12.84 -4.26 0 0 -12.84 4.26 0zm0.27 -3.97c0.02,0.62 -0.19,1.14 -0.63,1.57 -0.44,0.43 -1.02,0.65 -1.77,0.65l0 0 -0.02 0c-0.72,0 -1.3,-0.21 -1.72,-0.65 -0.42,-0.43 -0.63,-0.96 -0.63,-1.57 0,-0.62 0.22,-1.14 0.66,-1.56 0.44,-0.43 1.02,-0.63 1.74,-0.63 0.74,0 1.32,0.21 1.74,0.63 0.43,0.42 0.63,0.94 0.63,1.56zm15.11 9.45l0 7.36 -4.26 0 0 -6.87c0,-0.86 -0.17,-1.56 -0.51,-2.1 -0.34,-0.53 -0.89,-0.8 -1.67,-0.8 -0.59,0 -1.06,0.16 -1.42,0.49 -0.36,0.32 -0.61,0.68 -0.76,1.06 -0.06,0.15 -0.1,0.32 -0.12,0.5 -0.02,0.18 -0.04,0.37 -0.04,0.56l0 7.16 -4.26 0c0.02,-2.92 0.02,-5.22 0.02,-6.91 0,-1.71 0,-3 0,-3.87 0,-0.88 0,-1.43 0,-1.68 -0.02,-0.25 -0.02,-0.38 -0.02,-0.38l4.26 0 0 1.88 -0.02 0c0.29,-0.45 0.72,-0.93 1.29,-1.43 0.58,-0.5 1.43,-0.75 2.58,-0.75 0.71,0 1.36,0.12 1.95,0.36 0.6,0.23 1.12,0.58 1.56,1.06 0.44,0.48 0.78,1.07 1.02,1.8 0.26,0.73 0.39,1.58 0.39,2.56z"/>
 </g>
</svg>
