<?xml version="1.0" encoding="UTF-8"?>
<!DOCTYPE svg PUBLIC "-//W3C//DTD SVG 1.1//EN" "http://www.w3.org/Graphics/SVG/1.1/DTD/svg11.dtd">
<!-- Creator: CorelDRAW 2021 (64-Bit) -->
<svg xmlns="http://www.w3.org/2000/svg" xml:space="preserve" width="0.285835in" height="0.285835in" version="1.1" style="shape-rendering:geometricPrecision; text-rendering:geometricPrecision; image-rendering:optimizeQuality; fill-rule:evenodd; clip-rule:evenodd"
viewBox="0 0 27.71 27.71"
 xmlns:xlink="http://www.w3.org/1999/xlink"
 xmlns:xodm="http://www.corel.com/coreldraw/odm/2003">
 <defs>
  <style type="text/css">
   <![CDATA[
    .fil0 {fill:#DB353A;fill-rule:nonzero}
   ]]>
  </style>
 </defs>
 <g id="Layer_x0020_1">
  <metadata id="CorelCorpID_0Corel-Layer"/>
  <path class="fil0" d="M17.51 11.67c0,-1.3 -0.32,-2.32 -0.95,-3.04 -0.63,-0.73 -1.51,-1.09 -2.65,-1.09 -0.76,0 -1.5,0.18 -2.24,0.53 -0.74,0.36 -1.4,0.88 -1.99,1.55 -0.59,0.67 -1.07,1.48 -1.45,2.43 -0.36,0.96 -0.53,2.05 -0.53,3.25 0,1.35 0.32,2.39 0.96,3.12 0.65,0.74 1.56,1.1 2.73,1.1 0.9,0 1.73,-0.23 2.46,-0.69 0.76,-0.48 1.41,-1.1 1.96,-1.84 0.54,-0.75 0.96,-1.58 1.26,-2.51 0.3,-0.95 0.44,-1.88 0.44,-2.81zm10.19 2.18c0,1.41 -0.23,2.6 -0.69,3.56 -0.44,0.99 -1.02,1.79 -1.74,2.41 -0.71,0.62 -1.51,1.08 -2.4,1.37 -0.88,0.3 -1.76,0.45 -2.62,0.47 -0.11,0 -0.19,0.01 -0.27,0.02 -0.08,0.01 -0.17,0.02 -0.3,0.02 -0.57,0 -1.07,-0.09 -1.5,-0.25 -0.43,-0.17 -0.79,-0.41 -1.06,-0.73 -0.17,-0.19 -0.31,-0.41 -0.41,-0.66 -0.11,-0.25 -0.17,-0.53 -0.19,-0.82 -0.57,0.69 -1.32,1.33 -2.26,1.91 -0.93,0.58 -2.01,0.87 -3.23,0.87 -1.94,0 -3.44,-0.57 -4.5,-1.72 -1.06,-1.15 -1.59,-2.77 -1.59,-4.87 0,-1.43 0.23,-2.78 0.69,-4.04 0.46,-1.27 1.09,-2.37 1.89,-3.32 0.8,-0.94 1.74,-1.69 2.81,-2.24 1.07,-0.54 2.22,-0.82 3.44,-0.82 1.05,0 1.99,0.22 2.81,0.65 0.82,0.43 1.45,1.03 1.9,1.78l0.03 -0.34 0.22 -1.01c0,-0.06 0.03,-0.13 0.08,-0.2 0.05,-0.07 0.11,-0.11 0.17,-0.11l2.15 0c0.04,0 0.08,0.03 0.12,0.08 0.04,0.05 0.08,0.09 0.1,0.11 0.02,0.04 0.04,0.09 0.05,0.14 0.01,0.05 0.02,0.11 0.02,0.17l-2.18 11.04c-0.02,0.19 -0.04,0.36 -0.06,0.49 -0.02,0.13 -0.03,0.27 -0.03,0.39 0,0.48 0.08,0.8 0.24,0.95 0.16,0.15 0.43,0.22 0.8,0.22 0.61,-0.02 1.63,-0.32 3.06,-0.92 1.43,-0.59 2.15,-2.12 2.15,-4.6 0,-1.75 -0.27,-3.33 -0.82,-4.77 -0.55,-1.41 -1.33,-2.62 -2.34,-3.63 -1.01,-1.01 -2.22,-1.79 -3.63,-2.34 -1.43,-0.54 -3.02,-0.82 -4.77,-0.82 -1.6,0 -3.09,0.31 -4.48,0.92 -1.41,0.61 -2.63,1.44 -3.67,2.48 -1.04,1.04 -1.87,2.27 -2.48,3.68 -0.61,1.41 -0.92,2.9 -0.92,4.48 0,1.6 0.3,3.09 0.92,4.48 0.61,1.41 1.43,2.63 2.48,3.67 1.04,1.04 2.27,1.87 3.67,2.48 1.39,0.61 2.88,0.92 4.48,0.92 1.32,0 2.62,-0.23 3.87,-0.68 1.25,-0.45 2.39,-1.09 3.42,-1.91 0.12,-0.13 0.27,-0.18 0.43,-0.16 0.16,0.02 0.29,0.1 0.39,0.22l0.73 0.89c0.06,0.06 0.1,0.13 0.12,0.2 0.02,0.07 0.02,0.15 0,0.24 0,0.06 -0.02,0.13 -0.04,0.2 -0.03,0.07 -0.08,0.13 -0.15,0.17 -1.24,1.01 -2.61,1.78 -4.11,2.32 -1.51,0.53 -3.06,0.8 -4.66,0.8 -1.91,0 -3.71,-0.37 -5.4,-1.1 -1.68,-0.72 -3.15,-1.7 -4.4,-2.95 -1.25,-1.25 -2.23,-2.72 -2.95,-4.4 -0.74,-1.69 -1.1,-3.48 -1.1,-5.4 0,-1.92 0.37,-3.7 1.1,-5.36 0.72,-1.69 1.7,-3.16 2.95,-4.42 1.25,-1.26 2.72,-2.25 4.4,-2.97 1.69,-0.73 3.48,-1.1 5.4,-1.1 2.06,0 3.95,0.34 5.65,1.01 1.71,0.67 3.16,1.62 4.37,2.82 1.21,1.21 2.15,2.67 2.82,4.37 0.67,1.7 1.01,3.59 1.01,5.65z"/>
 </g>
</svg>
