<?xml version="1.0" encoding="UTF-8"?>
<!DOCTYPE svg PUBLIC "-//W3C//DTD SVG 1.1//EN" "http://www.w3.org/Graphics/SVG/1.1/DTD/svg11.dtd">
<!-- Creator: CorelDRAW 2021 (64-Bit) -->
<svg xmlns="http://www.w3.org/2000/svg" xml:space="preserve" width="0.290248in" height="0.252701in" version="1.1" style="shape-rendering:geometricPrecision; text-rendering:geometricPrecision; image-rendering:optimizeQuality; fill-rule:evenodd; clip-rule:evenodd"
viewBox="0 0 22.5 19.59"
 xmlns:xlink="http://www.w3.org/1999/xlink"
 xmlns:xodm="http://www.corel.com/coreldraw/odm/2003">
 <defs>
  <style type="text/css">
   <![CDATA[
    .str0 {stroke:#FEFEFE;stroke-width:0.3;stroke-miterlimit:10}
    .fil3 {fill:none;fill-rule:nonzero}
    .fil2 {fill:#FEFEFE;fill-rule:nonzero}
    .fil1 {fill:#222124;fill-rule:nonzero}
    .fil0 {fill:#DB353A;fill-rule:nonzero}
   ]]>
  </style>
 </defs>
 <g id="Layer_x0020_1">
  <metadata id="CorelCorpID_0Corel-Layer"/>
  <path class="fil0" d="M16.89 14.04l-0.43 -0.51c-1.42,-1.61 -3.48,-2.78 -4.16,-3.13l-0.37 0.58c-0.28,0.44 -0.81,0.64 -1.32,0.51 -0.01,0 -0.02,-0.01 -0.02,-0.02 0,-0 0,-0 0,-0 -0.59,-0.19 -0.94,-0.8 -0.8,-1.4 0.12,-0.54 0.33,-1.05 0.62,-1.52l-0.62 -0.08c-0.43,-0.06 -0.87,0.02 -1.26,0.23l-0.35 0.18c-0.44,0.24 -0.97,0.27 -1.44,0.08l-0.74 -0.31 -2.86 4.49 1.05 0.72 0.56 -0.56c0.45,-0.44 1.16,-0.44 1.61,0 0.19,0.19 0.31,0.43 0.33,0.7 0.6,-0.16 1.22,0.19 1.38,0.78 0.03,0.1 0.04,0.2 0.04,0.31 -0,0.1 -0.02,0.19 -0.04,0.29 0.26,0.02 0.51,0.14 0.7,0.33l0 0c0.28,0.29 0.39,0.7 0.29,1.09 0.27,0.01 0.52,0.13 0.7,0.33l0 0c0.41,0.42 0.44,1.07 0.08,1.52l0.58 0.72c0.34,0.31 0.87,0.29 1.18,-0.05 0.14,-0.15 0.22,-0.35 0.22,-0.55 -0.01,-0.2 -0.08,-0.4 -0.21,-0.56l-0.25 -0.25c-0.11,-0.11 -0.11,-0.3 0,-0.41 0.11,-0.11 0.3,-0.11 0.41,0l0 0 0.25 0.25 0.21 0.21c0.32,0.31 0.83,0.31 1.15,0l0.02 -0.02c0.29,-0.32 0.28,-0.82 -0.02,-1.13l-0.49 -0.49c-0.11,-0.11 -0.11,-0.3 0,-0.41 0.11,-0.11 0.3,-0.11 0.41,0l0 0 0.72 0.72c0.32,0.32 0.85,0.31 1.16,-0.01 0.15,-0.15 0.23,-0.35 0.24,-0.56 0,-0.21 -0.08,-0.41 -0.23,-0.56l-0.74 -0.74c-0.11,-0.12 -0.11,-0.3 0,-0.41 0.1,-0.11 0.27,-0.12 0.39,-0.02 0.01,0.01 0.02,0.02 0.02,0.02l0.91 0.91c0.18,0.17 0.41,0.27 0.66,0.27 0.43,-0.01 0.77,-0.36 0.76,-0.78 -0,-0.01 -0,-0.01 -0,-0.02 -0,-0.11 -0.02,-0.21 -0.06,-0.31 -0.06,-0.15 -0.14,-0.28 -0.23,-0.41z"/>
  <path class="fil0" d="M13.5 8.48l-1.05 -0.35c-0.51,-0.19 -1.09,0.01 -1.38,0.47l-0.04 0.08c-0.31,0.46 -0.52,0.98 -0.64,1.52 -0.08,0.33 0.13,0.65 0.45,0.73 0.24,0.06 0.5,-0.04 0.64,-0.25l0.51 -0.8c0.05,-0.08 0.15,-0.14 0.25,-0.14 0.04,-0 0.08,0 0.12,0.02 0.16,0.08 3.73,1.85 5.35,4.43l1.71 -0.97 -2.92 -4.57c-1,0.21 -2.04,0.16 -3,-0.16z"/>
  <path class="fil0" d="M9.38 17.47c-0.21,-0.22 -0.56,-0.22 -0.77,-0.01 -0,0 -0.01,0.01 -0.01,0.01l-0.78 0.78c-0.22,0.2 -0.23,0.54 -0.03,0.76 0.01,0.01 0.02,0.02 0.03,0.03 0.22,0.21 0.56,0.21 0.78,0l0.78 -0.78c0.1,-0.1 0.16,-0.24 0.16,-0.39 -0.01,-0.14 -0.07,-0.28 -0.16,-0.39l0 -0z"/>
  <path class="fil0" d="M8.37 16.07c-0.21,-0.22 -0.56,-0.22 -0.77,-0.01 -0,0 -0.01,0.01 -0.01,0.01l-0.99 0.99c-0.22,0.21 -0.22,0.56 -0.01,0.77 0,0 0.01,0.01 0.01,0.01 0.22,0.21 0.56,0.21 0.78,0l0.99 -0.99c0.22,-0.2 0.23,-0.54 0.03,-0.76 -0.01,-0.01 -0.02,-0.02 -0.03,-0.03z"/>
  <path class="fil0" d="M7.55 15.07c0,-0.31 -0.24,-0.55 -0.55,-0.56 -0.15,-0 -0.29,0.06 -0.4,0.16l-1.19 1.19c-0.22,0.21 -0.22,0.56 -0.01,0.77 0,0 0.01,0.01 0.01,0.01 0.22,0.21 0.56,0.21 0.78,0l1.19 -1.19c0.1,-0.1 0.16,-0.24 0.17,-0.39z"/>
  <path class="fil0" d="M5.98 13.67l0 0c-0.21,-0.22 -0.56,-0.22 -0.77,-0.01 -0,0 -0.01,0.01 -0.01,0.01l-0.99 0.99c-0.22,0.21 -0.22,0.56 -0.01,0.77 0,0 0.01,0.01 0.01,0.01 0.2,0.22 0.54,0.23 0.76,0.03 0.01,-0.01 0.02,-0.02 0.03,-0.03l0.99 -0.99c0.21,-0.22 0.21,-0.56 0,-0.78z"/>
  <path class="fil1" d="M5.55 7.35l-1.36 -0.86c-0.23,-0.15 -0.53,-0.08 -0.68,0.14l-3.44 5.39c-0.14,0.23 -0.08,0.54 0.14,0.7l1.36 0.86c0.11,0.07 0.24,0.09 0.37,0.06 0.13,-0.02 0.25,-0.11 0.31,-0.23l3.44 -5.39c0.15,-0.22 0.1,-0.51 -0.12,-0.66 -0.01,-0.01 -0.01,-0.01 -0.02,-0.01z"/>
  <path class="fil1" d="M22.43 12.02l-3.44 -5.39c-0.07,-0.11 -0.18,-0.19 -0.31,-0.23 -0.13,-0.02 -0.26,0 -0.37,0.06l-1.36 0.86c-0.23,0.15 -0.3,0.45 -0.15,0.69 0,0 0.01,0.01 0.01,0.01l3.44 5.39c0.14,0.23 0.43,0.3 0.66,0.16 0.01,-0 0.02,-0.01 0.02,-0.01l1.36 -0.86c0.22,-0.15 0.28,-0.45 0.14,-0.68z"/>
  <path class="fil0" d="M11.25 0c-1.96,0 -3.54,1.59 -3.54,3.54 0,1.96 1.58,3.54 3.54,3.54 1.96,0 3.54,-1.59 3.54,-3.54 0,-1.96 -1.58,-3.54 -3.54,-3.54 -0,0 -0,0 -0,0z"/>
  <path class="fil2" d="M12.24 2.61c0.18,0 0.33,0.15 0.33,0.33 0,0.18 -0.15,0.33 -0.33,0.33 -0.18,0 -0.33,-0.15 -0.33,-0.33 0,-0.18 0.15,-0.33 0.33,-0.33z"/>
  <path class="fil2" d="M10.29 2.61c0.18,0 0.33,0.15 0.33,0.33 0,0.18 -0.15,0.33 -0.33,0.33 -0.18,0 -0.33,-0.15 -0.33,-0.33 0,-0.18 0.15,-0.33 0.33,-0.33z"/>
  <path class="fil2" d="M12.73 4.71c-0.44,0.28 -0.96,0.43 -1.48,0.43 -0.51,0 -1.01,-0.15 -1.44,-0.43 -0.04,-0.01 -0.06,-0.06 -0.04,-0.1 0,-0 0,-0 0,-0.01 0.02,-0.04 0.06,-0.04 0.1,-0.02 0.4,0.27 0.88,0.41 1.36,0.41 0.5,0.01 0.98,-0.12 1.4,-0.39 0.03,-0.02 0.07,-0.02 0.1,0 0.06,0.04 0.06,0.08 -0,0.1z"/>
  <path class="fil3 str0" d="M12.73 4.71c-0.44,0.28 -0.96,0.43 -1.48,0.43 -0.51,0 -1.01,-0.15 -1.44,-0.43 -0.04,-0.01 -0.06,-0.06 -0.04,-0.1 0,-0 0,-0 0,-0.01 0.02,-0.04 0.06,-0.04 0.1,-0.02 0.4,0.27 0.88,0.41 1.36,0.41 0.5,0.01 0.98,-0.12 1.4,-0.39 0.03,-0.02 0.07,-0.02 0.1,0 0.06,0.04 0.06,0.08 -0,0.1z"/>
 </g>
</svg>
