<?xml version="1.0" encoding="UTF-8"?>
<!DOCTYPE svg PUBLIC "-//W3C//DTD SVG 1.1//EN" "http://www.w3.org/Graphics/SVG/1.1/DTD/svg11.dtd">
<!-- Creator: CorelDRAW 2021 (64-Bit) -->
<svg xmlns="http://www.w3.org/2000/svg" xml:space="preserve" width="0.252886in" height="0.266209in" version="1.1" style="shape-rendering:geometricPrecision; text-rendering:geometricPrecision; image-rendering:optimizeQuality; fill-rule:evenodd; clip-rule:evenodd"
viewBox="0 0 44.77 47.13"
 xmlns:xlink="http://www.w3.org/1999/xlink"
 xmlns:xodm="http://www.corel.com/coreldraw/odm/2003">
 <defs>
  <style type="text/css">
   <![CDATA[
    .fil0 {fill:#222124;fill-rule:nonzero}
    .fil1 {fill:#DB353A;fill-rule:nonzero}
   ]]>
  </style>
 </defs>
 <g id="Layer_x0020_1">
  <metadata id="CorelCorpID_0Corel-Layer"/>
  <path class="fil0" d="M19.27 45.52l6.13 0c-0.19,0.38 -0.47,0.57 -0.94,0.57l-0.28 0c-0.09,0.38 -0.28,1.04 -0.57,1.04l-2.64 0c-0.28,0 -0.57,-0.66 -0.57,-1.04l-0.28 0c-0.28,0 -0.66,-0.19 -0.85,-0.57z"/>
  <path class="fil0" d="M26.06 42.88l-7.36 0c-0.47,0 -0.85,0.38 -0.85,0.85 0,0.47 0.38,0.85 0.85,0.85l7.36 0c0.47,0 0.85,-0.38 0.85,-0.85 0,-0.47 -0.38,-0.85 -0.85,-0.85z"/>
  <path class="fil0" d="M26.06 40.24l-7.36 0c-0.47,0 -0.85,0.38 -0.85,0.85 0,0.47 0.38,0.85 0.85,0.85l7.36 0c0.47,0 0.85,-0.38 0.85,-0.85 0,-0.47 -0.38,-0.85 -0.85,-0.85z"/>
  <path class="fil1" d="M32.76 22.88c0,2.64 -1.04,4.62 -2.08,6.32 -1.04,1.7 -2.08,3.21 -2.36,4.91 -0.28,1.42 -0.09,3.02 -0.85,4.15 -0.28,0.38 -0.66,0.75 -1.13,0.94l-8.11 0c-0.47,-0.19 -0.85,-0.47 -1.13,-0.94 -0.28,-0.38 -0.38,-0.85 -0.47,-1.32 -0.19,-0.94 -0.19,-1.98 -0.38,-2.93 -0.28,-1.79 -1.32,-3.21 -2.36,-4.91 -1.04,-1.7 -2.08,-3.68 -2.08,-6.32 0,-5.76 4.62,-10.38 10.38,-10.38 5.94,0.09 10.57,4.72 10.57,10.47z"/>
  <path class="fil0" d="M10.87 3.91c-0.47,-0.85 0.85,-1.6 1.32,-0.75 1.23,2.17 2.45,4.34 3.77,6.51 0.47,0.85 -0.85,1.6 -1.32,0.75 -1.23,-2.17 -2.55,-4.34 -3.77,-6.51l0 0z"/>
  <path class="fil1" d="M23.14 8.16c0,-2.45 0,-5 0,-7.45 0,-0.47 -0.38,-0.71 -0.75,-0.71 -0.38,0 -0.75,0.24 -0.75,0.71 0,2.45 0,5 0,7.45 0,0.94 1.51,0.94 1.51,0z"/>
  <path class="fil1" d="M35.03 15.9c2.17,-1.23 4.34,-2.45 6.51,-3.77 0.85,-0.47 0.09,-1.79 -0.75,-1.32 -2.17,1.23 -4.34,2.45 -6.51,3.77 -0.85,0.47 -0.09,1.79 0.76,1.32l0 0z"/>
  <path class="fil0" d="M32.57 3.16c-1.23,2.17 -2.45,4.34 -3.77,6.51 -0.47,0.85 0.85,1.6 1.32,0.75 1.23,-2.17 2.45,-4.34 3.77,-6.51 0.47,-0.85 -0.85,-1.6 -1.32,-0.75l0 0z"/>
  <path class="fil0" d="M0.78 23.07c2.45,0 5,0 7.45,0 0.94,0 0.94,-1.51 0,-1.51 -2.45,0 -5,0 -7.45,0 -1.04,0 -1.04,1.51 0,1.51l0 0z"/>
  <path class="fil1" d="M10.5 14.58c-2.17,-1.23 -4.34,-2.45 -6.51,-3.77 -0.85,-0.47 -1.6,0.85 -0.75,1.32 2.17,1.23 4.34,2.45 6.51,3.77 0.85,0.47 1.6,-0.85 0.75,-1.32l0 0z"/>
  <path class="fil0" d="M43.99 21.56c-2.45,0 -5,0 -7.45,0 -0.94,0 -0.94,1.51 0,1.51 2.45,0 5,0 7.45,0 1.04,0 1.04,-1.51 0,-1.51l0 0z"/>
  <path class="fil1" d="M34.27 30.05c2.17,1.23 4.34,2.45 6.51,3.77 0.85,0.47 1.6,-0.85 0.75,-1.32 -2.17,-1.23 -4.34,-2.45 -6.51,-3.77 -0.85,-0.47 -1.6,0.85 -0.76,1.32l0 0z"/>
  <path class="fil1" d="M9.74 28.73c-2.17,1.23 -4.34,2.45 -6.51,3.77 -0.85,0.47 -0.09,1.79 0.75,1.32 2.17,-1.23 4.34,-2.45 6.51,-3.77 0.85,-0.47 0.09,-1.79 -0.75,-1.32l0 0z"/>
 </g>
</svg>
