<?xml version="1.0" encoding="UTF-8"?>
<!DOCTYPE svg PUBLIC "-//W3C//DTD SVG 1.1//EN" "http://www.w3.org/Graphics/SVG/1.1/DTD/svg11.dtd">
<!-- Creator: CorelDRAW 2021 (64-Bit) -->
<svg xmlns="http://www.w3.org/2000/svg" xml:space="preserve" width="0.262866in" height="0.317185in" version="1.1" style="shape-rendering:geometricPrecision; text-rendering:geometricPrecision; image-rendering:optimizeQuality; fill-rule:evenodd; clip-rule:evenodd"
viewBox="0 0 26.18 31.59"
 xmlns:xlink="http://www.w3.org/1999/xlink"
 xmlns:xodm="http://www.corel.com/coreldraw/odm/2003">
 <defs>
  <style type="text/css">
   <![CDATA[
    .fil1 {fill:#222124;fill-rule:nonzero}
    .fil0 {fill:#DB353A;fill-rule:nonzero}
   ]]>
  </style>
 </defs>
 <g id="Layer_x0020_1">
  <metadata id="CorelCorpID_0Corel-Layer"/>
  <path class="fil0" d="M8.43 18.41c2.01,0 3.68,-1.63 3.68,-3.68 0,-2.01 -1.63,-3.68 -3.68,-3.68 -2.05,0 -3.68,1.66 -3.68,3.71 0,2.01 1.63,3.64 3.68,3.64z"/>
  <path class="fil0" d="M3.99 25.87l0.83 0 0 3.78 5.93 0 0 -2.64c0,-1.77 0.73,-3.29 2.15,-4.33 0.59,-0.42 1.25,-0.76 2.01,-1.04 -0.76,-1.14 -2.12,-1.98 -4.09,-2.36l-2.39 1.8 -2.39 -1.8c-3.26,0.59 -4.82,2.46 -4.82,4.82l0 5.51 2.64 0 0.14 -3.75z"/>
  <path class="fil1" d="M18.9 21.12c2.12,0 3.81,-1.7 3.81,-3.81 0,-2.12 -1.7,-3.81 -3.81,-3.81 -2.12,0 -3.81,1.7 -3.81,3.81 0,2.12 1.73,3.81 3.81,3.81z"/>
  <path class="fil1" d="M11.69 27.01l0 4.58 2.64 0 0.17 -4.13 0.87 0 0 4.13 7.18 0 0 -4.13 0.83 0 0.17 4.13 2.64 0 0 -4.58c0,-2.84 -2.32,-5.03 -7.21,-5.03 -4.96,0 -7.28,2.15 -7.28,5.03z"/>
  <path class="fil0" d="M2.77 3.99c0,-0.07 0,-0.14 0.03,-0.21 0,-0.07 0.07,-0.14 0.1,-0.17 0.21,-0.21 0.59,-0.21 0.8,0 0.03,0.03 0.07,0.1 0.1,0.17 0.03,0.07 0.03,0.14 0.03,0.21 0,0.17 -0.07,0.31 -0.17,0.42 -0.14,0.1 -0.28,0.17 -0.42,0.17 -0.07,0 -0.14,0 -0.21,-0.03 -0.07,-0.03 -0.1,-0.1 -0.17,-0.14 -0.1,-0.1 -0.17,-0.24 -0.1,-0.42zm2.64 0c0,-0.31 0.24,-0.55 0.55,-0.55 0.31,0 0.55,0.24 0.55,0.55 0,0.31 -0.24,0.55 -0.55,0.55 -0.31,0 -0.55,-0.24 -0.55,-0.55l0 0zm2.67 0c0,-0.07 0,-0.14 0,-0.21 0.03,-0.07 0.1,-0.14 0.14,-0.17 0.21,-0.21 0.59,-0.21 0.8,0 0.07,0.03 0.1,0.1 0.14,0.17 0.03,0.07 0.03,0.14 0.03,0.21 0,0.17 -0.07,0.31 -0.17,0.42 -0.03,0.07 -0.1,0.1 -0.17,0.14 -0.07,0.03 -0.14,0.03 -0.21,0.03 -0.07,0 -0.14,0 -0.21,-0.03 -0.07,-0.03 -0.14,-0.1 -0.17,-0.14 -0.1,-0.14 -0.17,-0.28 -0.17,-0.42l0 0zm-8.08 -1.18l0 2.08c0,1.56 1.25,2.81 2.81,2.81l3.71 0 3.88 2.84c0.07,0.03 0.1,0.07 0.17,0.07 0.03,0 0.1,0 0.14,-0.03 0.1,-0.07 0.14,-0.17 0.14,-0.28l-0.17 -2.88c0.97,-0.49 1.6,-1.46 1.6,-2.53l0 -2.08c0,-1.56 -1.25,-2.81 -2.81,-2.81l-6.66 0c-1.53,0 -2.77,1.25 -2.81,2.81z"/>
  <path class="fil0" d="M23.41 8.29c-0.03,0.03 -0.07,0.07 -0.14,0.1 -0.03,0.03 -0.1,0.03 -0.14,0.03 -0.1,0 -0.21,-0.03 -0.31,-0.14 -0.07,-0.07 -0.14,-0.17 -0.14,-0.31 0,-0.03 0,-0.1 0.03,-0.14 0.03,-0.03 0.03,-0.1 0.07,-0.14 0.14,-0.14 0.42,-0.14 0.59,0 0.03,0.03 0.07,0.07 0.07,0.14 0.03,0.03 0.03,0.1 0.03,0.14 0.07,0.14 0,0.24 -0.07,0.31zm-1.87 -0.31c0,0.24 -0.17,0.42 -0.42,0.42 -0.24,0 -0.42,-0.17 -0.42,-0.42 0,-0.24 0.17,-0.42 0.42,-0.42 0.24,0 0.42,0.21 0.42,0.42l0 0zm-1.94 0c0,0.1 -0.03,0.21 -0.14,0.31 -0.03,0.03 -0.07,0.07 -0.14,0.1 -0.03,0.03 -0.1,0.03 -0.14,0.03 -0.03,0 -0.1,0 -0.14,-0.03 -0.03,-0.03 -0.1,-0.03 -0.14,-0.1 -0.07,-0.07 -0.14,-0.17 -0.14,-0.31 0,-0.03 0,-0.1 0.03,-0.14 0.03,-0.03 0.03,-0.1 0.1,-0.14 0.14,-0.14 0.42,-0.14 0.59,0 0.03,0.03 0.07,0.07 0.1,0.14 0,0.07 0,0.1 0,0.14l0 0zm3.85 -2.91l-4.85 0c-1.14,0 -2.05,0.9 -2.05,2.05l0 1.53c0,0.8 0.45,1.49 1.18,1.84l-0.14 2.12c0,0.07 0.03,0.14 0.1,0.21 0.03,0.03 0.07,0.03 0.1,0.03 0.03,0 0.07,-0.03 0.14,-0.03l2.84 -2.08 2.7 0c1.14,0 2.05,-0.9 2.05,-2.05l0 -1.53c-0.03,-1.14 -0.94,-2.08 -2.08,-2.08z"/>
 </g>
</svg>
