<?xml version="1.0" encoding="UTF-8"?>
<!DOCTYPE svg PUBLIC "-//W3C//DTD SVG 1.1//EN" "http://www.w3.org/Graphics/SVG/1.1/DTD/svg11.dtd">
<!-- Creator: CorelDRAW 2021 (64-Bit) -->
<svg xmlns="http://www.w3.org/2000/svg" xml:space="preserve" width="0.266008in" height="0.263146in" version="1.1" style="shape-rendering:geometricPrecision; text-rendering:geometricPrecision; image-rendering:optimizeQuality; fill-rule:evenodd; clip-rule:evenodd"
viewBox="0 0 31.17 30.83"
 xmlns:xlink="http://www.w3.org/1999/xlink"
 xmlns:xodm="http://www.corel.com/coreldraw/odm/2003">
 <defs>
  <style type="text/css">
   <![CDATA[
    .fil0 {fill:#DB353A}
   ]]>
  </style>
 </defs>
 <g id="Layer_x0020_1">
  <metadata id="CorelCorpID_0Corel-Layer"/>
  <path class="fil0" d="M25.94 25.39c0,0.32 -0.07,0.75 -0.19,1.29 -0.13,0.54 -0.26,0.96 -0.39,1.26 -0.19,0.45 -0.51,0.83 -0.96,1.14 -0.45,0.31 -0.89,0.58 -1.29,0.82 -0.53,0.28 -1.08,0.51 -1.64,0.68 -0.56,0.18 -1.15,0.26 -1.77,0.26 -0.86,0 -1.68,-0.14 -2.46,-0.42 -0.79,-0.28 -1.57,-0.57 -2.37,-0.87 -0.56,-0.19 -1.11,-0.41 -1.64,-0.66 -0.53,-0.25 -1.06,-0.53 -1.58,-0.86 -0.77,-0.49 -1.58,-1.08 -2.41,-1.77 -0.84,-0.69 -1.66,-1.42 -2.45,-2.21 -0.8,-0.79 -1.54,-1.6 -2.23,-2.44 -0.69,-0.84 -1.26,-1.64 -1.74,-2.41 -0.32,-0.52 -0.61,-1.04 -0.85,-1.58 -0.25,-0.54 -0.48,-1.08 -0.69,-1.64 -0.28,-0.79 -0.56,-1.58 -0.84,-2.37 -0.28,-0.78 -0.42,-1.61 -0.42,-2.46 0,-0.62 0.08,-1.22 0.24,-1.77 0.16,-0.56 0.39,-1.11 0.69,-1.64 0.24,-0.43 0.51,-0.86 0.82,-1.3 0.31,-0.44 0.69,-0.76 1.14,-0.95 0.3,-0.13 0.72,-0.26 1.26,-0.39 0.54,-0.13 0.97,-0.2 1.29,-0.2 0.07,0 0.13,0.01 0.19,0.02 0.07,0.01 0.13,0.03 0.2,0.05 0.19,0.07 0.38,0.27 0.56,0.61 0.18,0.35 0.32,0.6 0.4,0.77 0.3,0.54 0.6,1.07 0.89,1.6 0.29,0.53 0.59,1.05 0.89,1.56 0.15,0.24 0.33,0.5 0.54,0.79 0.21,0.29 0.32,0.57 0.32,0.85 0,0.56 -0.56,1.2 -1.68,1.92 -1.12,0.72 -1.68,1.34 -1.68,1.85 0,0.24 0.09,0.5 0.26,0.79 0.18,0.29 0.32,0.56 0.45,0.79 0.95,1.68 2.02,3.11 3.22,4.32 1.2,1.2 2.65,2.27 4.32,3.19 0.22,0.13 0.47,0.29 0.78,0.47 0.3,0.18 0.57,0.27 0.81,0.27 0.49,0 1.11,-0.56 1.84,-1.68 0.73,-1.12 1.38,-1.68 1.93,-1.68 0.28,0 0.57,0.11 0.85,0.32 0.29,0.21 0.56,0.4 0.79,0.55 0.52,0.3 1.03,0.59 1.56,0.89 0.53,0.29 1.05,0.57 1.56,0.85 0.19,0.11 0.46,0.25 0.81,0.43 0.34,0.18 0.54,0.37 0.61,0.57 0.02,0.06 0.04,0.13 0.05,0.19 0.01,0.07 0.02,0.13 0.02,0.19zm-0.05 -20.11c3.52,3.51 5.27,8.12 5.27,12.73l-3.3 0c0,-3.76 -1.44,-7.53 -4.31,-10.4 -2.87,-2.87 -6.64,-4.31 -10.4,-4.31l0 -3.3c4.61,0 9.22,1.76 12.73,5.27zm-5.57 5.57c1.98,1.98 2.96,4.57 2.96,7.16l-3.3 0c0,-1.75 -0.67,-3.49 -2,-4.82 -1.33,-1.33 -3.08,-2 -4.82,-2l0 -3.3c2.59,0 5.18,0.99 7.16,2.96z"/>
 </g>
</svg>
