<?xml version="1.0" encoding="UTF-8"?>
<!DOCTYPE svg PUBLIC "-//W3C//DTD SVG 1.1//EN" "http://www.w3.org/Graphics/SVG/1.1/DTD/svg11.dtd">
<!-- Creator: CorelDRAW 2021 (64-Bit) -->
<svg xmlns="http://www.w3.org/2000/svg" xml:space="preserve" width="0.24224in" height="0.338594in" version="1.1" style="shape-rendering:geometricPrecision; text-rendering:geometricPrecision; image-rendering:optimizeQuality; fill-rule:evenodd; clip-rule:evenodd"
viewBox="0 0 41.76 58.37"
 xmlns:xlink="http://www.w3.org/1999/xlink"
 xmlns:xodm="http://www.corel.com/coreldraw/odm/2003">
 <defs>
  <style type="text/css">
   <![CDATA[
    .fil1 {fill:#FEFEFE}
    .fil2 {fill:#222124}
    .fil0 {fill:#DB353A}
   ]]>
  </style>
 </defs>
 <g id="Layer_x0020_1">
  <metadata id="CorelCorpID_0Corel-Layer"/>
  <path class="fil0" d="M41.76 20.88c0,11.52 -9.36,20.88 -20.88,20.88 -11.52,0 -20.88,-9.36 -20.88,-20.88 0,-11.52 9.36,-20.88 20.88,-20.88 11.52,0 20.88,9.36 20.88,20.88l0 0z"/>
  <path class="fil1" d="M32.75 6.96l-9.77 0c-0.7,0 -2.16,0.18 -2.87,1.4l0 -1.4c-6.43,0 -11.7,5.26 -11.7,11.7l0 5.5c0,1.23 0.18,2.4 0.53,3.57 0.29,-0.06 0.64,-0.12 0.94,-0.23 1.81,-0.64 3.04,-2.11 3.39,-3.86 0.29,2.4 -1.05,4.74 -3.45,5.56 -0.99,0.35 -2.11,0.35 -3.04,0.12 0.94,1.05 2.28,1.7 3.68,1.64 1.97,2.95 5.22,4.99 8.88,5.38l1.51 0c2.57,-0.3 4.85,-1.58 6.45,-3.45 0.18,-0.18 0.23,-0.41 0.18,-0.64 0,-0.23 -0.12,-0.53 -0.35,-0.58l-1.29 -0.29 -0.58 -0.99c-0.12,-0.23 -0.41,-0.18 -0.64,-0.12 -0.23,0.06 -0.41,0.18 -0.53,0.41 -0.7,1.4 -2.16,2.34 -3.86,2.34 -2.4,0 -4.39,-1.99 -4.39,-4.39 0,-2.4 1.99,-4.39 4.39,-4.39 0.06,0 0.12,0 0.18,0 -0.76,-0.47 -1.52,-0.99 -2.16,-1.64 1.87,1.05 3.98,1.64 6.08,1.64 9.89,-0.06 8.42,-8.89 8.42,-17.25zm-18.42 10c0.58,0 1.11,0.47 1.11,1.11 0,0.59 -0.47,1.11 -1.11,1.11 -0.59,0 -1.11,-0.47 -1.11,-1.11 0.06,-0.64 0.53,-1.11 1.11,-1.11z"/>
  <path class="fil2" d="M33.98 55.56l0 2.16 0.18 0c0.35,0 0.53,0 0.7,0 0.06,0 0.29,-0.06 0.47,-0.23 0.23,-0.23 0.18,-0.76 0.18,-0.76 0,-0.47 -0.18,-0.76 -0.29,-0.88 -0.06,-0.06 -0.18,-0.12 -0.35,-0.18 -0.18,-0.06 -0.23,0 -0.53,-0.06l-0.35 0 0 -0.06zm-0.64 -0.53l1.17 0c0.18,0 0.35,0 0.47,0.06 0.18,0.06 0.53,0.12 0.82,0.47 0.12,0.18 0.35,0.58 0.35,1.17 0,0.64 -0.23,1.29 -0.94,1.52 -0.29,0.12 -0.53,0.06 -0.82,0.12l-1.05 0 0 -3.33zm-2.63 0l0.58 0 0 3.28 -0.47 0 -1.46 -2.34 0.06 2.34 -0.58 0 0 -3.28 0.58 0 1.46 2.34 -0.18 -2.34zm-4.56 2.11l-0.47 -1.52 -0.47 1.52 0.94 0zm0.18 0.53l-1.23 0 -0.18 0.64 -0.64 0 1.11 -3.28 0.7 0 1.11 3.28 -0.64 0 -0.23 -0.64zm-4.74 0.12l1.29 0 0 0.58 -1.93 0 0 -3.28 0.64 0 0 2.69 -0 0zm-2.69 -2.75l0 3.28 -0.58 0 0 -3.28 0.58 0zm-3.22 2.11l-0.47 -1.52 -0.47 1.52 0.94 0zm0.18 0.53l-1.23 0 -0.18 0.64 -0.64 0 1.11 -3.28 0.7 0 1.11 3.28 -0.64 0 -0.23 -0.64zm-3.68 -2.63l0 3.28 -0.64 0 0 -1.52 -1.4 0 0 1.52 -0.64 0 0 -3.28 0.64 0 0 1.23 1.4 0 0 -1.23 0.64 0zm-4.27 0.53l-0.94 0 0 2.75 -0.64 0 0 -2.75 -0.88 0 0 -0.58 2.4 0 0 0.58 0.06 0z"/>
 </g>
</svg>
