<?xml version="1.0" encoding="UTF-8"?>
<!DOCTYPE svg PUBLIC "-//W3C//DTD SVG 1.1//EN" "http://www.w3.org/Graphics/SVG/1.1/DTD/svg11.dtd">
<!-- Creator: CorelDRAW 2021 (64-Bit) -->
<svg xmlns="http://www.w3.org/2000/svg" xml:space="preserve" width="0.24224in" height="0.338933in" version="1.1" style="shape-rendering:geometricPrecision; text-rendering:geometricPrecision; image-rendering:optimizeQuality; fill-rule:evenodd; clip-rule:evenodd"
viewBox="0 0 12.06 16.88"
 xmlns:xlink="http://www.w3.org/1999/xlink"
 xmlns:xodm="http://www.corel.com/coreldraw/odm/2003">
 <defs>
  <style type="text/css">
   <![CDATA[
    .fil1 {fill:#FEFEFE}
    .fil2 {fill:#222124}
    .fil0 {fill:#DB353A}
   ]]>
  </style>
 </defs>
 <g id="Layer_x0020_1">
  <metadata id="CorelCorpID_0Corel-Layer"/>
  <path class="fil0" d="M12.06 6.03c0,3.33 -2.7,6.03 -6.03,6.03 -3.33,0 -6.03,-2.7 -6.03,-6.03 0,-3.33 2.7,-6.03 6.03,-6.03 3.33,0 6.03,2.7 6.03,6.03l0 0z"/>
  <path class="fil1" d="M7.47 6.32c-0.2,-0.68 -0.44,-1.27 -0.83,-1.71 0.17,-0.14 0.25,-0.34 0.27,-0.61 -0.64,0.27 -1.33,0.35 -2.04,0.41 -0.2,0.76 -0.9,0.41 -0.56,1.35 0.25,-0.39 0.64,-0.08 0.96,-0.14 0.02,0.79 -0.46,1.86 -0.86,2.5 0.17,-0.76 0.24,-0.98 0.34,-1.62 -1.3,-0.84 -2.55,-1.91 -3.73,-3.28 -0.39,1.33 0.95,2.4 1.96,3.18 -0.74,-0.42 -1.47,-0.96 -2.16,-1.69 0.02,1.81 0.68,2.2 2.16,3.09 -0.68,-0.25 -1.13,-0.49 -1.57,-0.79 0.86,1.64 2.59,2.77 4.56,2.77 1.98,0 3.7,-1.13 4.56,-2.77 -0.46,0.3 -0.91,0.52 -1.57,0.79 1.49,-0.9 2.13,-1.28 2.16,-3.09 -0.69,0.73 -1.4,1.27 -2.16,1.69 1.01,-0.78 2.35,-1.84 1.96,-3.18 -1.12,1.28 -2.26,2.28 -3.45,3.09z"/>
  <path class="fil1" d="M10.02 7.33c-0.57,0.93 -1.44,1.76 -2.65,2.28 1.37,-0.39 2.52,-1.34 3.16,-2.59 -0.17,0.12 -0.34,0.22 -0.51,0.3z"/>
  <path class="fil1" d="M9.55 7.45c1.05,-0.66 1.52,-1.18 1.54,-2.7 -0.1,0.12 -0.22,0.22 -0.34,0.34 0.03,0.2 0.1,1.37 -1.2,2.37z"/>
  <path class="fil1" d="M9.41 6.07c0.9,-0.73 1.81,-1.67 1.49,-2.8 -0.08,0.08 -0.15,0.19 -0.24,0.27 0.02,0.42 0.03,1.47 -1.33,2.62 0.02,-0.03 0.05,-0.07 0.08,-0.08z"/>
  <path class="fil1" d="M7.47 6.32c-0.2,-0.68 -0.44,-1.27 -0.83,-1.71 0.2,0.3 0.51,1.2 0.56,1.82l0.27 -0.12z"/>
  <path class="fil2" d="M7.47 16.51l-0.14 -0.44 -0.14 0.44 0.27 0zm0.05 0.15l-0.35 0 -0.05 0.19 -0.19 0 0.32 -0.95 0.2 0 0.32 0.95 -0.19 0 -0.07 -0.19zm-1.39 -0.2l-0.12 -0.03c-0.05,-0.02 -0.1,-0.02 -0.15,-0.05 -0.05,-0.02 -0.14,-0.08 -0.14,-0.22 0,-0.02 0,-0.08 0.03,-0.14 0.05,-0.07 0.15,-0.15 0.34,-0.15 0.08,0 0.25,0.02 0.39,0.19l-0.15 0.1c-0.03,-0.05 -0.1,-0.14 -0.25,-0.14 -0.02,0 -0.14,0 -0.17,0.07 0,0.02 -0.02,0.03 -0.02,0.05 0,0.02 0,0.03 0.02,0.05 0.02,0.03 0.07,0.05 0.17,0.07l0.1 0.02c0.08,0.02 0.19,0.05 0.25,0.12 0.03,0.03 0.05,0.07 0.05,0.17 0,0.08 -0.03,0.15 -0.1,0.2 -0.12,0.1 -0.27,0.1 -0.3,0.1 -0.05,0 -0.24,0 -0.37,-0.14 -0.02,-0.02 -0.03,-0.03 -0.05,-0.07l0.15 -0.1c0.03,0.07 0.12,0.14 0.3,0.14 0,0 0.03,0 0.07,0 0.02,0 0.12,-0.03 0.12,-0.12 0,-0.02 0,-0.03 -0.02,-0.05 -0.02,-0.05 -0.1,-0.05 -0.15,-0.07l0 0zm-0.95 -0.56l0 0.56c0,0.1 0,0.15 -0.02,0.2 -0.03,0.1 -0.14,0.22 -0.37,0.22 -0.12,0 -0.22,-0.03 -0.3,-0.12 -0.02,-0.02 -0.05,-0.05 -0.07,-0.1 -0.02,-0.05 -0.02,-0.1 -0.02,-0.2l0 -0.57 0.19 0 0 0.59c0,0.05 0,0.08 0.02,0.1 0.02,0.05 0.07,0.12 0.2,0.12 0.02,0 0.15,0 0.19,-0.1 0.02,-0.03 0.02,-0.05 0.02,-0.12l0 -0.57 0.17 0 0 0z"/>
 </g>
</svg>
